G75*
%MOIN*%
%OFA0B0*%
%FSLAX25Y25*%
%IPPOS*%
%LPD*%
%AMOC8*
5,1,8,0,0,1.08239X$1,22.5*
%
%ADD10C,0.10335*%
%ADD11R,0.10335X0.10335*%
%ADD12OC8,0.05600*%
%ADD13OC8,0.05200*%
%ADD14OC8,0.06000*%
%ADD15C,0.06600*%
%ADD16C,0.05200*%
%ADD17R,0.05937X0.05937*%
%ADD18C,0.05937*%
%ADD19C,0.02787*%
%ADD20C,0.05543*%
%ADD21OC8,0.06300*%
%ADD22C,0.01000*%
%ADD23C,0.04000*%
%ADD24C,0.01600*%
%ADD25C,0.05000*%
D10*
X0186800Y0112798D03*
X0261800Y0172798D03*
X0197509Y0213506D03*
D11*
X0197509Y0195396D03*
X0243690Y0172798D03*
X0168690Y0112798D03*
D12*
X0161800Y0188506D03*
X0131800Y0188506D03*
D13*
X0161800Y0203506D03*
X0146800Y0223506D03*
X0161800Y0243506D03*
X0151800Y0253506D03*
X0131800Y0253506D03*
X0116800Y0253506D03*
X0121800Y0278506D03*
X0101800Y0278506D03*
X0096800Y0298506D03*
X0096800Y0313506D03*
X0076800Y0313506D03*
X0061800Y0298506D03*
X0046800Y0278506D03*
X0026800Y0278506D03*
X0021800Y0298506D03*
X0021800Y0253506D03*
X0006800Y0223506D03*
X0021800Y0208506D03*
X0046800Y0223506D03*
X0056800Y0223506D03*
X0061800Y0253506D03*
X0076800Y0253506D03*
X0096800Y0223506D03*
X0106800Y0223506D03*
X0096800Y0153506D03*
X0081800Y0138506D03*
X0096800Y0133506D03*
X0096800Y0113506D03*
X0096800Y0093506D03*
X0081800Y0093506D03*
X0041800Y0093506D03*
X0041800Y0138506D03*
X0021800Y0168506D03*
X0136800Y0153506D03*
X0136800Y0133506D03*
X0136800Y0113506D03*
X0136800Y0093506D03*
X0291800Y0138506D03*
X0331800Y0138506D03*
X0311800Y0178506D03*
X0301800Y0178506D03*
X0136800Y0298506D03*
X0091800Y0368506D03*
X0051800Y0368506D03*
D14*
X0152300Y0153506D03*
X0211300Y0153506D03*
D15*
X0085100Y0158506D02*
X0078500Y0158506D01*
X0045100Y0158506D02*
X0038500Y0158506D01*
X0038500Y0113506D02*
X0045100Y0113506D01*
X0078500Y0113506D02*
X0085100Y0113506D01*
X0111800Y0330206D02*
X0111800Y0336806D01*
X0095100Y0343506D02*
X0088500Y0343506D01*
X0111800Y0370206D02*
X0111800Y0376806D01*
X0055100Y0343506D02*
X0048500Y0343506D01*
D16*
X0051800Y0211106D02*
X0051800Y0205906D01*
X0061800Y0205906D02*
X0061800Y0211106D01*
X0071800Y0211106D02*
X0071800Y0205906D01*
X0081800Y0205906D02*
X0081800Y0211106D01*
X0091800Y0211106D02*
X0091800Y0205906D01*
X0101800Y0205906D02*
X0101800Y0211106D01*
X0111800Y0211106D02*
X0111800Y0205906D01*
X0111800Y0181106D02*
X0111800Y0175906D01*
X0101800Y0175906D02*
X0101800Y0181106D01*
X0091800Y0181106D02*
X0091800Y0175906D01*
X0081800Y0175906D02*
X0081800Y0181106D01*
X0071800Y0181106D02*
X0071800Y0175906D01*
X0061800Y0175906D02*
X0061800Y0181106D01*
X0051800Y0181106D02*
X0051800Y0175906D01*
D17*
X0196800Y0309506D03*
D18*
X0206800Y0309506D03*
X0216800Y0309506D03*
X0226800Y0309506D03*
X0236800Y0309506D03*
X0246800Y0309506D03*
X0256800Y0309506D03*
X0266800Y0309506D03*
X0276800Y0309506D03*
X0286800Y0309506D03*
X0296800Y0309506D03*
X0306800Y0309506D03*
X0316800Y0309506D03*
X0326800Y0309506D03*
X0336800Y0309506D03*
X0336800Y0369506D03*
X0326800Y0369506D03*
X0316800Y0369506D03*
X0306800Y0369506D03*
X0296800Y0369506D03*
X0286800Y0369506D03*
X0276800Y0369506D03*
X0266800Y0369506D03*
X0256800Y0369506D03*
X0246800Y0369506D03*
X0236800Y0369506D03*
X0226800Y0369506D03*
X0216800Y0369506D03*
X0206800Y0369506D03*
X0196800Y0369506D03*
D19*
X0335028Y0110869D03*
X0336800Y0108506D03*
X0335028Y0106144D03*
X0338572Y0106144D03*
X0338572Y0110869D03*
D20*
X0266800Y0133506D03*
X0256800Y0133506D03*
D21*
X0186800Y0273506D03*
X0196800Y0283506D03*
X0186800Y0288506D03*
X0166800Y0288506D03*
X0166800Y0273506D03*
X0216800Y0283506D03*
D22*
X0235350Y0288256D02*
X0292950Y0230656D01*
X0293400Y0230656D01*
X0293400Y0207706D01*
X0318600Y0182506D01*
X0318600Y0182056D01*
X0318600Y0094306D01*
X0315000Y0107356D02*
X0303750Y0096106D01*
X0303750Y0093856D01*
X0315000Y0116356D02*
X0299250Y0132106D01*
X0295650Y0138856D02*
X0292050Y0138856D01*
X0291800Y0138506D01*
X0295650Y0138856D02*
X0313650Y0156856D01*
X0313650Y0176656D01*
X0311800Y0178506D01*
X0332100Y0167206D02*
X0332100Y0138856D01*
X0331800Y0138506D01*
X0369900Y0131656D02*
X0373050Y0128506D01*
X0384750Y0128506D01*
X0235350Y0288256D02*
X0187200Y0288256D01*
X0186800Y0288506D01*
X0166800Y0273506D02*
X0166500Y0273406D01*
X0166500Y0262606D01*
X0153450Y0249556D01*
X0067500Y0249556D01*
X0067500Y0257206D01*
X0067500Y0249556D02*
X0067500Y0222556D01*
X0081450Y0208606D01*
X0081800Y0208506D01*
X0081900Y0208156D01*
X0085950Y0204106D01*
X0085950Y0198256D01*
X0084600Y0194656D02*
X0072000Y0207256D01*
X0072000Y0208156D01*
X0071800Y0208506D01*
X0084600Y0194656D02*
X0106200Y0194656D01*
X0135000Y0223456D01*
X0146700Y0223456D01*
X0146800Y0223506D01*
X0162000Y0209056D02*
X0211050Y0160006D01*
X0211050Y0153706D01*
X0211300Y0153506D01*
X0187200Y0129406D01*
X0187200Y0113206D01*
X0186800Y0112798D01*
X0152100Y0142906D02*
X0152100Y0153256D01*
X0152300Y0153506D01*
X0152100Y0142906D02*
X0119925Y0110731D01*
X0097200Y0133456D01*
X0096800Y0133506D01*
X0102150Y0133906D02*
X0082350Y0153706D01*
X0046350Y0153706D01*
X0041850Y0158206D01*
X0041800Y0158506D01*
X0060300Y0171706D02*
X0114750Y0171706D01*
X0131400Y0188356D01*
X0131800Y0188506D01*
X0101700Y0178906D02*
X0101800Y0178506D01*
X0101700Y0178906D02*
X0095400Y0185206D01*
X0066600Y0185206D01*
X0028350Y0223456D01*
X0007200Y0223456D01*
X0006800Y0223506D01*
X0031950Y0273406D02*
X0027000Y0278356D01*
X0026800Y0278506D01*
X0031950Y0273406D02*
X0080100Y0273406D01*
X0096300Y0278356D02*
X0117000Y0257656D01*
X0147600Y0257656D01*
X0151650Y0253606D01*
X0151800Y0253506D01*
X0161800Y0243506D02*
X0162000Y0243256D01*
X0162000Y0209056D01*
X0131800Y0253506D02*
X0131400Y0253606D01*
X0117000Y0253606D01*
X0116800Y0253506D01*
X0121800Y0278506D02*
X0121500Y0278806D01*
X0121500Y0333706D01*
X0091800Y0363406D01*
X0091800Y0368506D01*
X0090450Y0373306D02*
X0111600Y0373306D01*
X0111800Y0373506D01*
X0112500Y0374206D01*
X0228150Y0374206D01*
X0232650Y0369706D01*
X0236700Y0369706D01*
X0236800Y0369506D01*
X0096750Y0298606D02*
X0096800Y0298506D01*
X0096750Y0298606D02*
X0062100Y0298606D01*
X0061800Y0298506D01*
X0046800Y0278506D02*
X0046800Y0278356D01*
X0096300Y0278356D01*
X0091800Y0343506D02*
X0091800Y0343606D01*
X0076275Y0359131D01*
X0090450Y0373306D01*
X0076275Y0359131D02*
X0067050Y0368356D01*
X0052200Y0368356D01*
X0051800Y0368506D01*
X0051800Y0178506D02*
X0052200Y0178456D01*
X0053550Y0178456D01*
X0060300Y0171706D01*
X0102150Y0133906D02*
X0136800Y0133906D01*
X0136800Y0133506D01*
X0119925Y0110731D02*
X0136800Y0093856D01*
X0136800Y0093506D01*
D23*
X0085950Y0198256D03*
X0067500Y0257206D03*
X0080100Y0273406D03*
X0293400Y0230656D03*
X0318600Y0182056D03*
X0332100Y0167206D03*
X0309150Y0158656D03*
X0299250Y0132106D03*
X0315000Y0116356D03*
X0315000Y0107356D03*
X0318600Y0094306D03*
X0303750Y0093856D03*
X0369900Y0131656D03*
X0384750Y0128506D03*
X0377550Y0177106D03*
X0349200Y0205456D03*
D24*
X0023615Y0089625D02*
X0021373Y0088330D01*
X0021800Y0088306D01*
X0381800Y0088306D01*
X0382227Y0088330D01*
X0379985Y0089625D01*
X0377918Y0091691D01*
X0376457Y0094222D01*
X0375701Y0097045D01*
X0375701Y0099968D01*
X0376457Y0102790D01*
X0377918Y0105321D01*
X0379985Y0107388D01*
X0382516Y0108849D01*
X0385339Y0109605D01*
X0388261Y0109605D01*
X0391084Y0108849D01*
X0393615Y0107388D01*
X0395682Y0105321D01*
X0396976Y0103079D01*
X0397000Y0103506D01*
X0397000Y0363506D01*
X0396976Y0363933D01*
X0395682Y0361691D01*
X0393615Y0359625D01*
X0391084Y0358163D01*
X0388261Y0357407D01*
X0385339Y0357407D01*
X0382516Y0358163D01*
X0379985Y0359625D01*
X0377918Y0361691D01*
X0376457Y0364222D01*
X0375701Y0367045D01*
X0375701Y0369968D01*
X0376457Y0372790D01*
X0377918Y0375321D01*
X0379985Y0377388D01*
X0382227Y0378682D01*
X0381800Y0378706D01*
X0116317Y0378706D01*
X0116700Y0377781D01*
X0116700Y0376306D01*
X0229020Y0376306D01*
X0230250Y0375076D01*
X0233080Y0372247D01*
X0234212Y0373379D01*
X0235891Y0374075D01*
X0237709Y0374075D01*
X0239388Y0373379D01*
X0240673Y0372094D01*
X0241368Y0370415D01*
X0241368Y0368598D01*
X0240673Y0366918D01*
X0239388Y0365633D01*
X0237709Y0364938D01*
X0235891Y0364938D01*
X0234212Y0365633D01*
X0232927Y0366918D01*
X0232642Y0367606D01*
X0231780Y0367606D01*
X0231199Y0368188D01*
X0230673Y0366918D01*
X0229388Y0365633D01*
X0227709Y0364938D01*
X0225891Y0364938D01*
X0224212Y0365633D01*
X0222927Y0366918D01*
X0222231Y0368598D01*
X0222231Y0370415D01*
X0222927Y0372094D01*
X0222939Y0372106D01*
X0220661Y0372106D01*
X0220673Y0372094D01*
X0221368Y0370415D01*
X0221368Y0368598D01*
X0220673Y0366918D01*
X0219388Y0365633D01*
X0217709Y0364938D01*
X0215891Y0364938D01*
X0214212Y0365633D01*
X0212927Y0366918D01*
X0212231Y0368598D01*
X0212231Y0370415D01*
X0212927Y0372094D01*
X0212939Y0372106D01*
X0210805Y0372106D01*
X0210878Y0372006D01*
X0211219Y0371337D01*
X0211451Y0370623D01*
X0211568Y0369882D01*
X0211568Y0369691D01*
X0206984Y0369691D01*
X0206984Y0369322D01*
X0206984Y0364738D01*
X0207175Y0364738D01*
X0207917Y0364855D01*
X0208630Y0365087D01*
X0209299Y0365428D01*
X0209906Y0365869D01*
X0210437Y0366400D01*
X0210878Y0367007D01*
X0211219Y0367676D01*
X0211451Y0368390D01*
X0211568Y0369131D01*
X0211568Y0369322D01*
X0206984Y0369322D01*
X0206616Y0369322D01*
X0206616Y0364738D01*
X0206425Y0364738D01*
X0205683Y0364855D01*
X0204970Y0365087D01*
X0204301Y0365428D01*
X0203694Y0365869D01*
X0203163Y0366400D01*
X0202722Y0367007D01*
X0202381Y0367676D01*
X0202149Y0368390D01*
X0202031Y0369131D01*
X0202031Y0369322D01*
X0206616Y0369322D01*
X0206616Y0369691D01*
X0202031Y0369691D01*
X0202031Y0369882D01*
X0202149Y0370623D01*
X0202381Y0371337D01*
X0202722Y0372006D01*
X0202795Y0372106D01*
X0200661Y0372106D01*
X0200673Y0372094D01*
X0201368Y0370415D01*
X0201368Y0368598D01*
X0200673Y0366918D01*
X0199388Y0365633D01*
X0197709Y0364938D01*
X0195891Y0364938D01*
X0194212Y0365633D01*
X0192927Y0366918D01*
X0192231Y0368598D01*
X0192231Y0370415D01*
X0192927Y0372094D01*
X0192939Y0372106D01*
X0116700Y0372106D01*
X0116700Y0369232D01*
X0115954Y0367431D01*
X0114576Y0366052D01*
X0112775Y0365306D01*
X0110825Y0365306D01*
X0109024Y0366052D01*
X0107646Y0367431D01*
X0106900Y0369232D01*
X0106900Y0371206D01*
X0095040Y0371206D01*
X0096000Y0370246D01*
X0096000Y0366767D01*
X0093900Y0364667D01*
X0093900Y0364276D01*
X0122370Y0335806D01*
X0123600Y0334576D01*
X0123600Y0282646D01*
X0126000Y0280246D01*
X0126000Y0276767D01*
X0123540Y0274306D01*
X0120060Y0274306D01*
X0117600Y0276767D01*
X0117600Y0280246D01*
X0119400Y0282046D01*
X0119400Y0332836D01*
X0116900Y0335336D01*
X0116900Y0333806D01*
X0112100Y0333806D01*
X0112100Y0333206D01*
X0112100Y0325106D01*
X0112201Y0325106D01*
X0112994Y0325232D01*
X0113758Y0325480D01*
X0114473Y0325844D01*
X0115122Y0326316D01*
X0115690Y0326884D01*
X0116162Y0327533D01*
X0116526Y0328249D01*
X0116774Y0329012D01*
X0116900Y0329805D01*
X0116900Y0333206D01*
X0112100Y0333206D01*
X0111500Y0333206D01*
X0111500Y0325106D01*
X0111399Y0325106D01*
X0110606Y0325232D01*
X0109842Y0325480D01*
X0109127Y0325844D01*
X0108478Y0326316D01*
X0107910Y0326884D01*
X0107438Y0327533D01*
X0107074Y0328249D01*
X0106826Y0329012D01*
X0106700Y0329805D01*
X0106700Y0333206D01*
X0111500Y0333206D01*
X0111500Y0333806D01*
X0106700Y0333806D01*
X0106700Y0337208D01*
X0106826Y0338001D01*
X0107074Y0338764D01*
X0107438Y0339479D01*
X0107910Y0340129D01*
X0108478Y0340696D01*
X0109127Y0341168D01*
X0109842Y0341533D01*
X0110493Y0341744D01*
X0089700Y0362536D01*
X0089700Y0364667D01*
X0087600Y0366767D01*
X0087600Y0367486D01*
X0079245Y0359131D01*
X0089970Y0348406D01*
X0096075Y0348406D01*
X0097876Y0347660D01*
X0099254Y0346282D01*
X0100000Y0344481D01*
X0100000Y0342532D01*
X0099254Y0340731D01*
X0097876Y0339352D01*
X0096075Y0338606D01*
X0087525Y0338606D01*
X0085724Y0339352D01*
X0084346Y0340731D01*
X0083600Y0342532D01*
X0083600Y0344481D01*
X0084346Y0346282D01*
X0085250Y0347186D01*
X0075405Y0357031D01*
X0075405Y0357031D01*
X0074175Y0358261D01*
X0074175Y0358261D01*
X0066180Y0366256D01*
X0055490Y0366256D01*
X0053540Y0364306D01*
X0050060Y0364306D01*
X0047600Y0366767D01*
X0047600Y0370246D01*
X0050060Y0372706D01*
X0053540Y0372706D01*
X0055790Y0370456D01*
X0067920Y0370456D01*
X0076275Y0362101D01*
X0088350Y0374176D01*
X0089580Y0375406D01*
X0106900Y0375406D01*
X0106900Y0377781D01*
X0107283Y0378706D01*
X0021800Y0378706D01*
X0021373Y0378682D01*
X0023615Y0377388D01*
X0025682Y0375321D01*
X0027143Y0372790D01*
X0027899Y0369968D01*
X0027899Y0367045D01*
X0027143Y0364222D01*
X0025682Y0361691D01*
X0023615Y0359625D01*
X0021084Y0358163D01*
X0018261Y0357407D01*
X0015339Y0357407D01*
X0012516Y0358163D01*
X0009985Y0359625D01*
X0007918Y0361691D01*
X0006624Y0363933D01*
X0006600Y0363506D01*
X0006600Y0227706D01*
X0008540Y0227706D01*
X0010690Y0225556D01*
X0029220Y0225556D01*
X0047600Y0207176D01*
X0047600Y0211942D01*
X0048239Y0213485D01*
X0049421Y0214667D01*
X0050965Y0215306D01*
X0052635Y0215306D01*
X0054179Y0214667D01*
X0055361Y0213485D01*
X0056000Y0211942D01*
X0056000Y0205071D01*
X0055361Y0203527D01*
X0054179Y0202346D01*
X0052943Y0201834D01*
X0067470Y0187306D01*
X0096270Y0187306D01*
X0099165Y0184411D01*
X0099421Y0184667D01*
X0100965Y0185306D01*
X0102635Y0185306D01*
X0104179Y0184667D01*
X0105361Y0183485D01*
X0106000Y0181942D01*
X0106000Y0175071D01*
X0105476Y0173806D01*
X0108124Y0173806D01*
X0107600Y0175071D01*
X0107600Y0181942D01*
X0108239Y0183485D01*
X0109421Y0184667D01*
X0110965Y0185306D01*
X0112635Y0185306D01*
X0114179Y0184667D01*
X0115361Y0183485D01*
X0116000Y0181942D01*
X0116000Y0175926D01*
X0127400Y0187326D01*
X0127400Y0190329D01*
X0129977Y0192906D01*
X0133623Y0192906D01*
X0136200Y0190329D01*
X0136200Y0186684D01*
X0133623Y0184106D01*
X0130120Y0184106D01*
X0115620Y0169606D01*
X0059430Y0169606D01*
X0058200Y0170836D01*
X0055404Y0173632D01*
X0055361Y0173527D01*
X0054179Y0172346D01*
X0052635Y0171706D01*
X0050965Y0171706D01*
X0049421Y0172346D01*
X0048239Y0173527D01*
X0047600Y0175071D01*
X0047600Y0181942D01*
X0048239Y0183485D01*
X0049421Y0184667D01*
X0050965Y0185306D01*
X0052635Y0185306D01*
X0054179Y0184667D01*
X0055361Y0183485D01*
X0056000Y0181942D01*
X0056000Y0178976D01*
X0057600Y0177376D01*
X0057600Y0181942D01*
X0058239Y0183485D01*
X0059421Y0184667D01*
X0060965Y0185306D01*
X0062635Y0185306D01*
X0064163Y0184674D01*
X0027480Y0221356D01*
X0010590Y0221356D01*
X0008540Y0219306D01*
X0006600Y0219306D01*
X0006600Y0103506D01*
X0006624Y0103079D01*
X0007918Y0105321D01*
X0009985Y0107388D01*
X0012516Y0108849D01*
X0015339Y0109605D01*
X0018261Y0109605D01*
X0021084Y0108849D01*
X0023615Y0107388D01*
X0025682Y0105321D01*
X0027143Y0102790D01*
X0027899Y0099968D01*
X0027899Y0097045D01*
X0027143Y0094222D01*
X0025682Y0091691D01*
X0023615Y0089625D01*
X0023891Y0089900D02*
X0039466Y0089900D01*
X0040060Y0089306D02*
X0043540Y0089306D01*
X0046000Y0091767D01*
X0046000Y0095246D01*
X0043540Y0097706D01*
X0040060Y0097706D01*
X0037600Y0095246D01*
X0037600Y0091767D01*
X0040060Y0089306D01*
X0037868Y0091499D02*
X0025489Y0091499D01*
X0026493Y0093097D02*
X0037600Y0093097D01*
X0037600Y0094696D02*
X0027270Y0094696D01*
X0027698Y0096294D02*
X0038648Y0096294D01*
X0044952Y0096294D02*
X0078648Y0096294D01*
X0077600Y0095246D02*
X0077600Y0091767D01*
X0080060Y0089306D01*
X0083540Y0089306D01*
X0086000Y0091767D01*
X0086000Y0095246D01*
X0083540Y0097706D01*
X0080060Y0097706D01*
X0077600Y0095246D01*
X0077600Y0094696D02*
X0046000Y0094696D01*
X0046000Y0093097D02*
X0077600Y0093097D01*
X0077868Y0091499D02*
X0045732Y0091499D01*
X0044134Y0089900D02*
X0079466Y0089900D01*
X0084134Y0089900D02*
X0094466Y0089900D01*
X0095060Y0089306D02*
X0098540Y0089306D01*
X0101000Y0091767D01*
X0101000Y0095246D01*
X0098540Y0097706D01*
X0095060Y0097706D01*
X0092600Y0095246D01*
X0092600Y0091767D01*
X0095060Y0089306D01*
X0092868Y0091499D02*
X0085732Y0091499D01*
X0086000Y0093097D02*
X0092600Y0093097D01*
X0092600Y0094696D02*
X0086000Y0094696D01*
X0084952Y0096294D02*
X0093648Y0096294D01*
X0099134Y0089900D02*
X0134466Y0089900D01*
X0135060Y0089306D02*
X0138540Y0089306D01*
X0141000Y0091767D01*
X0141000Y0095246D01*
X0138540Y0097706D01*
X0135920Y0097706D01*
X0122895Y0110731D01*
X0152970Y0140806D01*
X0154200Y0142036D01*
X0154200Y0148906D01*
X0154205Y0148906D01*
X0156900Y0151601D01*
X0156900Y0155412D01*
X0154205Y0158106D01*
X0150395Y0158106D01*
X0147700Y0155412D01*
X0147700Y0151601D01*
X0150000Y0149301D01*
X0150000Y0143776D01*
X0141000Y0134776D01*
X0141000Y0135246D01*
X0138540Y0137706D01*
X0135060Y0137706D01*
X0133360Y0136006D01*
X0103020Y0136006D01*
X0085420Y0153606D01*
X0086075Y0153606D01*
X0087876Y0154352D01*
X0089254Y0155731D01*
X0090000Y0157532D01*
X0090000Y0159481D01*
X0089254Y0161282D01*
X0087876Y0162660D01*
X0086075Y0163406D01*
X0077525Y0163406D01*
X0075724Y0162660D01*
X0074346Y0161282D01*
X0073600Y0159481D01*
X0073600Y0157532D01*
X0074315Y0155806D01*
X0049285Y0155806D01*
X0050000Y0157532D01*
X0050000Y0159481D01*
X0049254Y0161282D01*
X0047876Y0162660D01*
X0046075Y0163406D01*
X0037525Y0163406D01*
X0035724Y0162660D01*
X0034346Y0161282D01*
X0033600Y0159481D01*
X0033600Y0157532D01*
X0034346Y0155731D01*
X0035724Y0154352D01*
X0037525Y0153606D01*
X0043480Y0153606D01*
X0045480Y0151606D01*
X0081480Y0151606D01*
X0095380Y0137706D01*
X0095060Y0137706D01*
X0092600Y0135246D01*
X0092600Y0131767D01*
X0095060Y0129306D01*
X0098380Y0129306D01*
X0117825Y0109861D01*
X0119055Y0108631D01*
X0119055Y0108631D01*
X0132600Y0095086D01*
X0132600Y0091767D01*
X0135060Y0089306D01*
X0132868Y0091499D02*
X0100732Y0091499D01*
X0101000Y0093097D02*
X0132600Y0093097D01*
X0132600Y0094696D02*
X0101000Y0094696D01*
X0099952Y0096294D02*
X0131392Y0096294D01*
X0129794Y0097893D02*
X0027899Y0097893D01*
X0027899Y0099491D02*
X0128195Y0099491D01*
X0126597Y0101090D02*
X0027598Y0101090D01*
X0027170Y0102688D02*
X0124998Y0102688D01*
X0123400Y0104287D02*
X0026279Y0104287D01*
X0025117Y0105885D02*
X0121801Y0105885D01*
X0120202Y0107484D02*
X0023449Y0107484D01*
X0020213Y0109082D02*
X0036376Y0109082D01*
X0035724Y0109352D02*
X0037525Y0108606D01*
X0046075Y0108606D01*
X0047876Y0109352D01*
X0049254Y0110731D01*
X0050000Y0112532D01*
X0050000Y0114481D01*
X0049254Y0116282D01*
X0047876Y0117660D01*
X0046075Y0118406D01*
X0037525Y0118406D01*
X0035724Y0117660D01*
X0034346Y0116282D01*
X0033600Y0114481D01*
X0033600Y0112532D01*
X0034346Y0110731D01*
X0035724Y0109352D01*
X0034396Y0110681D02*
X0006600Y0110681D01*
X0006600Y0112280D02*
X0033704Y0112280D01*
X0033600Y0113878D02*
X0006600Y0113878D01*
X0006600Y0115477D02*
X0034012Y0115477D01*
X0035139Y0117075D02*
X0006600Y0117075D01*
X0006600Y0118674D02*
X0109013Y0118674D01*
X0107414Y0120272D02*
X0006600Y0120272D01*
X0006600Y0121871D02*
X0105816Y0121871D01*
X0104217Y0123469D02*
X0006600Y0123469D01*
X0006600Y0125068D02*
X0102619Y0125068D01*
X0101020Y0126666D02*
X0006600Y0126666D01*
X0006600Y0128265D02*
X0099422Y0128265D01*
X0094503Y0129863D02*
X0006600Y0129863D01*
X0006600Y0131462D02*
X0092905Y0131462D01*
X0092600Y0133060D02*
X0006600Y0133060D01*
X0006600Y0134659D02*
X0039708Y0134659D01*
X0040060Y0134306D02*
X0043540Y0134306D01*
X0046000Y0136767D01*
X0046000Y0140246D01*
X0043540Y0142706D01*
X0040060Y0142706D01*
X0037600Y0140246D01*
X0037600Y0136767D01*
X0040060Y0134306D01*
X0038109Y0136257D02*
X0006600Y0136257D01*
X0006600Y0137856D02*
X0037600Y0137856D01*
X0037600Y0139454D02*
X0006600Y0139454D01*
X0006600Y0141053D02*
X0038407Y0141053D01*
X0040005Y0142651D02*
X0006600Y0142651D01*
X0006600Y0144250D02*
X0088837Y0144250D01*
X0090435Y0142651D02*
X0083595Y0142651D01*
X0083540Y0142706D02*
X0080060Y0142706D01*
X0077600Y0140246D01*
X0077600Y0136767D01*
X0080060Y0134306D01*
X0083540Y0134306D01*
X0086000Y0136767D01*
X0086000Y0140246D01*
X0083540Y0142706D01*
X0085193Y0141053D02*
X0092034Y0141053D01*
X0093632Y0139454D02*
X0086000Y0139454D01*
X0086000Y0137856D02*
X0095231Y0137856D01*
X0093611Y0136257D02*
X0085491Y0136257D01*
X0083892Y0134659D02*
X0092600Y0134659D01*
X0097973Y0141053D02*
X0147277Y0141053D01*
X0148875Y0142651D02*
X0096375Y0142651D01*
X0094776Y0144250D02*
X0150000Y0144250D01*
X0150000Y0145848D02*
X0093178Y0145848D01*
X0091579Y0147447D02*
X0150000Y0147447D01*
X0150000Y0149045D02*
X0089981Y0149045D01*
X0088382Y0150644D02*
X0093723Y0150644D01*
X0092600Y0151767D02*
X0095060Y0149306D01*
X0098540Y0149306D01*
X0101000Y0151767D01*
X0101000Y0155246D01*
X0098540Y0157706D01*
X0095060Y0157706D01*
X0092600Y0155246D01*
X0092600Y0151767D01*
X0092600Y0152242D02*
X0086784Y0152242D01*
X0086641Y0153841D02*
X0092600Y0153841D01*
X0092793Y0155439D02*
X0088963Y0155439D01*
X0089795Y0157038D02*
X0094392Y0157038D01*
X0090000Y0158636D02*
X0208950Y0158636D01*
X0208950Y0159136D02*
X0208950Y0157662D01*
X0206700Y0155412D01*
X0206700Y0151876D01*
X0185100Y0130276D01*
X0185100Y0119418D01*
X0182967Y0118535D01*
X0181063Y0116631D01*
X0180033Y0114144D01*
X0180033Y0111452D01*
X0181063Y0108964D01*
X0182967Y0107061D01*
X0185454Y0106030D01*
X0188146Y0106030D01*
X0190633Y0107061D01*
X0192537Y0108964D01*
X0193567Y0111452D01*
X0193567Y0114144D01*
X0192537Y0116631D01*
X0190633Y0118535D01*
X0189300Y0119087D01*
X0189300Y0128536D01*
X0209670Y0148906D01*
X0213205Y0148906D01*
X0215900Y0151601D01*
X0215900Y0155412D01*
X0213205Y0158106D01*
X0213150Y0158106D01*
X0213150Y0160876D01*
X0211920Y0162106D01*
X0164100Y0209926D01*
X0164100Y0239867D01*
X0166000Y0241767D01*
X0166000Y0245246D01*
X0163540Y0247706D01*
X0160060Y0247706D01*
X0157600Y0245246D01*
X0157600Y0241767D01*
X0159900Y0239467D01*
X0159900Y0208186D01*
X0160380Y0207706D01*
X0160060Y0207706D01*
X0157600Y0205246D01*
X0157600Y0201767D01*
X0160060Y0199306D01*
X0163540Y0199306D01*
X0166000Y0201767D01*
X0166000Y0202086D01*
X0208950Y0159136D01*
X0207852Y0160235D02*
X0089688Y0160235D01*
X0088703Y0161833D02*
X0206253Y0161833D01*
X0204655Y0163432D02*
X0006600Y0163432D01*
X0006600Y0165030D02*
X0019336Y0165030D01*
X0020060Y0164306D02*
X0023540Y0164306D01*
X0026000Y0166767D01*
X0026000Y0170246D01*
X0023540Y0172706D01*
X0020060Y0172706D01*
X0017600Y0170246D01*
X0017600Y0166767D01*
X0020060Y0164306D01*
X0017738Y0166629D02*
X0006600Y0166629D01*
X0006600Y0168227D02*
X0017600Y0168227D01*
X0017600Y0169826D02*
X0006600Y0169826D01*
X0006600Y0171424D02*
X0018778Y0171424D01*
X0024822Y0171424D02*
X0057612Y0171424D01*
X0059211Y0169826D02*
X0026000Y0169826D01*
X0026000Y0168227D02*
X0199859Y0168227D01*
X0201458Y0166629D02*
X0025862Y0166629D01*
X0024264Y0165030D02*
X0203056Y0165030D01*
X0205799Y0168227D02*
X0236922Y0168227D01*
X0236922Y0166968D02*
X0237860Y0166030D01*
X0249520Y0166030D01*
X0250457Y0166968D01*
X0250457Y0178628D01*
X0249520Y0179565D01*
X0237860Y0179565D01*
X0236922Y0178628D01*
X0236922Y0166968D01*
X0237261Y0166629D02*
X0207397Y0166629D01*
X0208996Y0165030D02*
X0263112Y0165030D01*
X0262512Y0165630D02*
X0273301Y0154841D01*
X0274955Y0154156D01*
X0307980Y0154156D01*
X0295035Y0141211D01*
X0293540Y0142706D01*
X0290060Y0142706D01*
X0287600Y0140246D01*
X0287600Y0136767D01*
X0290060Y0134306D01*
X0293540Y0134306D01*
X0295990Y0136756D01*
X0296520Y0136756D01*
X0314520Y0154756D01*
X0315750Y0155986D01*
X0315750Y0176517D01*
X0316000Y0176767D01*
X0316000Y0179565D01*
X0316500Y0179065D01*
X0316500Y0119632D01*
X0315716Y0119956D01*
X0314370Y0119956D01*
X0302850Y0131476D01*
X0302850Y0132822D01*
X0302302Y0134146D01*
X0301289Y0135158D01*
X0299966Y0135706D01*
X0298534Y0135706D01*
X0297211Y0135158D01*
X0296198Y0134146D01*
X0295650Y0132822D01*
X0295650Y0131390D01*
X0296198Y0130067D01*
X0297211Y0129054D01*
X0298534Y0128506D01*
X0299880Y0128506D01*
X0311400Y0116986D01*
X0311400Y0115640D01*
X0311948Y0114317D01*
X0312961Y0113304D01*
X0314284Y0112756D01*
X0315716Y0112756D01*
X0316500Y0113081D01*
X0316500Y0110632D01*
X0315716Y0110956D01*
X0314284Y0110956D01*
X0312961Y0110408D01*
X0311948Y0109396D01*
X0311400Y0108072D01*
X0311400Y0106726D01*
X0301650Y0096976D01*
X0301650Y0096847D01*
X0300698Y0095896D01*
X0300150Y0094572D01*
X0300150Y0093140D01*
X0300698Y0091817D01*
X0301711Y0090804D01*
X0303034Y0090256D01*
X0304466Y0090256D01*
X0305789Y0090804D01*
X0306802Y0091817D01*
X0307350Y0093140D01*
X0307350Y0094572D01*
X0306802Y0095896D01*
X0306655Y0096042D01*
X0314370Y0103756D01*
X0315716Y0103756D01*
X0316500Y0104081D01*
X0316500Y0097297D01*
X0315548Y0096346D01*
X0315000Y0095022D01*
X0315000Y0093590D01*
X0315548Y0092267D01*
X0316561Y0091254D01*
X0317884Y0090706D01*
X0319316Y0090706D01*
X0320639Y0091254D01*
X0321652Y0092267D01*
X0322200Y0093590D01*
X0322200Y0095022D01*
X0321652Y0096346D01*
X0320700Y0097297D01*
X0320700Y0179065D01*
X0321652Y0180017D01*
X0322200Y0181340D01*
X0322200Y0182772D01*
X0321652Y0184096D01*
X0320639Y0185108D01*
X0319316Y0185656D01*
X0318420Y0185656D01*
X0295500Y0208576D01*
X0295500Y0227665D01*
X0296452Y0228617D01*
X0297000Y0229940D01*
X0297000Y0231372D01*
X0296452Y0232696D01*
X0295439Y0233708D01*
X0294116Y0234256D01*
X0292684Y0234256D01*
X0292426Y0234150D01*
X0236220Y0290356D01*
X0191550Y0290356D01*
X0191550Y0290474D01*
X0188768Y0293256D01*
X0184832Y0293256D01*
X0182050Y0290474D01*
X0182050Y0286539D01*
X0184832Y0283756D01*
X0188768Y0283756D01*
X0191168Y0286156D01*
X0192733Y0286156D01*
X0192050Y0285474D01*
X0192050Y0281539D01*
X0194832Y0278756D01*
X0198768Y0278756D01*
X0201550Y0281539D01*
X0201550Y0285474D01*
X0200867Y0286156D01*
X0212450Y0286156D01*
X0211850Y0285557D01*
X0211850Y0283506D01*
X0211850Y0281456D01*
X0214750Y0278556D01*
X0216800Y0278556D01*
X0218850Y0278556D01*
X0221750Y0281456D01*
X0221750Y0283506D01*
X0216800Y0283506D01*
X0216800Y0278556D01*
X0216800Y0283506D01*
X0216800Y0283506D01*
X0216800Y0283506D01*
X0211850Y0283506D01*
X0216800Y0283506D01*
X0216800Y0283506D01*
X0221750Y0283506D01*
X0221750Y0285557D01*
X0221150Y0286156D01*
X0234480Y0286156D01*
X0289800Y0230836D01*
X0289800Y0229940D01*
X0290348Y0228617D01*
X0291300Y0227665D01*
X0291300Y0206836D01*
X0315107Y0183030D01*
X0315000Y0182772D01*
X0315000Y0181340D01*
X0315067Y0181179D01*
X0313540Y0182706D01*
X0310060Y0182706D01*
X0307600Y0180246D01*
X0307600Y0176767D01*
X0310060Y0174306D01*
X0311550Y0174306D01*
X0311550Y0162533D01*
X0310045Y0163156D01*
X0277714Y0163156D01*
X0268967Y0171903D01*
X0268967Y0174223D01*
X0267876Y0176858D01*
X0265860Y0178874D01*
X0263226Y0179965D01*
X0260374Y0179965D01*
X0257740Y0178874D01*
X0255724Y0176858D01*
X0254633Y0174223D01*
X0254633Y0171372D01*
X0255724Y0168738D01*
X0257740Y0166721D01*
X0260374Y0165630D01*
X0262512Y0165630D01*
X0264710Y0163432D02*
X0210594Y0163432D01*
X0212193Y0161833D02*
X0266309Y0161833D01*
X0267907Y0160235D02*
X0213150Y0160235D01*
X0213150Y0158636D02*
X0269506Y0158636D01*
X0271105Y0157038D02*
X0214274Y0157038D01*
X0215872Y0155439D02*
X0272703Y0155439D01*
X0277438Y0163432D02*
X0311550Y0163432D01*
X0311550Y0165030D02*
X0275840Y0165030D01*
X0274241Y0166629D02*
X0311550Y0166629D01*
X0311550Y0168227D02*
X0272643Y0168227D01*
X0271044Y0169826D02*
X0311550Y0169826D01*
X0311550Y0171424D02*
X0269446Y0171424D01*
X0268967Y0173023D02*
X0311550Y0173023D01*
X0309745Y0174621D02*
X0303855Y0174621D01*
X0303540Y0174306D02*
X0306000Y0176767D01*
X0306000Y0180246D01*
X0303540Y0182706D01*
X0300060Y0182706D01*
X0297600Y0180246D01*
X0297600Y0176767D01*
X0300060Y0174306D01*
X0303540Y0174306D01*
X0305453Y0176220D02*
X0308147Y0176220D01*
X0307600Y0177818D02*
X0306000Y0177818D01*
X0306000Y0179417D02*
X0307600Y0179417D01*
X0308370Y0181015D02*
X0305230Y0181015D01*
X0303632Y0182614D02*
X0309968Y0182614D01*
X0313632Y0182614D02*
X0315000Y0182614D01*
X0313924Y0184213D02*
X0189814Y0184213D01*
X0188215Y0185811D02*
X0312325Y0185811D01*
X0310727Y0187410D02*
X0186617Y0187410D01*
X0185018Y0189008D02*
X0191299Y0189008D01*
X0191679Y0188629D02*
X0203339Y0188629D01*
X0204276Y0189566D01*
X0204276Y0201226D01*
X0203339Y0202163D01*
X0191679Y0202163D01*
X0190741Y0201226D01*
X0190741Y0189566D01*
X0191679Y0188629D01*
X0190741Y0190607D02*
X0183420Y0190607D01*
X0181821Y0192205D02*
X0190741Y0192205D01*
X0190741Y0193804D02*
X0180223Y0193804D01*
X0178624Y0195402D02*
X0190741Y0195402D01*
X0190741Y0197001D02*
X0177026Y0197001D01*
X0175427Y0198599D02*
X0190741Y0198599D01*
X0190741Y0200198D02*
X0173829Y0200198D01*
X0172230Y0201796D02*
X0191311Y0201796D01*
X0193675Y0207769D02*
X0196163Y0206739D01*
X0198855Y0206739D01*
X0201342Y0207769D01*
X0203246Y0209673D01*
X0204276Y0212160D01*
X0204276Y0214852D01*
X0203246Y0217340D01*
X0201342Y0219243D01*
X0198855Y0220274D01*
X0196163Y0220274D01*
X0193675Y0219243D01*
X0191772Y0217340D01*
X0190741Y0214852D01*
X0190741Y0212160D01*
X0191772Y0209673D01*
X0193675Y0207769D01*
X0193254Y0208190D02*
X0165836Y0208190D01*
X0167434Y0206592D02*
X0291545Y0206592D01*
X0291300Y0208190D02*
X0201763Y0208190D01*
X0203294Y0209789D02*
X0291300Y0209789D01*
X0291300Y0211387D02*
X0203956Y0211387D01*
X0204276Y0212986D02*
X0291300Y0212986D01*
X0291300Y0214584D02*
X0204276Y0214584D01*
X0203725Y0216183D02*
X0291300Y0216183D01*
X0291300Y0217781D02*
X0202804Y0217781D01*
X0201013Y0219380D02*
X0291300Y0219380D01*
X0291300Y0220978D02*
X0164100Y0220978D01*
X0164100Y0219380D02*
X0194005Y0219380D01*
X0192213Y0217781D02*
X0164100Y0217781D01*
X0164100Y0216183D02*
X0191292Y0216183D01*
X0190741Y0214584D02*
X0164100Y0214584D01*
X0164100Y0212986D02*
X0190741Y0212986D01*
X0191062Y0211387D02*
X0164100Y0211387D01*
X0164237Y0209789D02*
X0191724Y0209789D01*
X0203706Y0201796D02*
X0296340Y0201796D01*
X0294742Y0203395D02*
X0170631Y0203395D01*
X0169033Y0204993D02*
X0293143Y0204993D01*
X0295886Y0208190D02*
X0345570Y0208190D01*
X0345385Y0208005D02*
X0346651Y0209271D01*
X0348305Y0209956D01*
X0350095Y0209956D01*
X0351749Y0209271D01*
X0381365Y0179655D01*
X0382050Y0178001D01*
X0382050Y0176211D01*
X0381365Y0174557D01*
X0380099Y0173291D01*
X0378445Y0172606D01*
X0376655Y0172606D01*
X0375001Y0173291D01*
X0345385Y0202907D01*
X0344700Y0204561D01*
X0344700Y0206351D01*
X0345385Y0208005D01*
X0344800Y0206592D02*
X0297484Y0206592D01*
X0299083Y0204993D02*
X0344700Y0204993D01*
X0345183Y0203395D02*
X0300681Y0203395D01*
X0302280Y0201796D02*
X0346496Y0201796D01*
X0348095Y0200198D02*
X0303879Y0200198D01*
X0305477Y0198599D02*
X0349693Y0198599D01*
X0351292Y0197001D02*
X0307076Y0197001D01*
X0308674Y0195402D02*
X0352890Y0195402D01*
X0354489Y0193804D02*
X0310273Y0193804D01*
X0311871Y0192205D02*
X0356087Y0192205D01*
X0357686Y0190607D02*
X0313470Y0190607D01*
X0315068Y0189008D02*
X0359284Y0189008D01*
X0360883Y0187410D02*
X0316667Y0187410D01*
X0318265Y0185811D02*
X0362481Y0185811D01*
X0364080Y0184213D02*
X0321535Y0184213D01*
X0322200Y0182614D02*
X0365678Y0182614D01*
X0367277Y0181015D02*
X0322065Y0181015D01*
X0321052Y0179417D02*
X0368875Y0179417D01*
X0370474Y0177818D02*
X0320700Y0177818D01*
X0320700Y0176220D02*
X0372072Y0176220D01*
X0373671Y0174621D02*
X0320700Y0174621D01*
X0320700Y0173023D02*
X0375649Y0173023D01*
X0379451Y0173023D02*
X0397000Y0173023D01*
X0397000Y0174621D02*
X0381391Y0174621D01*
X0382050Y0176220D02*
X0397000Y0176220D01*
X0397000Y0177818D02*
X0382050Y0177818D01*
X0381464Y0179417D02*
X0397000Y0179417D01*
X0397000Y0181015D02*
X0380005Y0181015D01*
X0378406Y0182614D02*
X0397000Y0182614D01*
X0397000Y0184213D02*
X0376808Y0184213D01*
X0375209Y0185811D02*
X0397000Y0185811D01*
X0397000Y0187410D02*
X0373611Y0187410D01*
X0372012Y0189008D02*
X0397000Y0189008D01*
X0397000Y0190607D02*
X0370414Y0190607D01*
X0368815Y0192205D02*
X0397000Y0192205D01*
X0397000Y0193804D02*
X0367217Y0193804D01*
X0365618Y0195402D02*
X0397000Y0195402D01*
X0397000Y0197001D02*
X0364020Y0197001D01*
X0362421Y0198599D02*
X0397000Y0198599D01*
X0397000Y0200198D02*
X0360823Y0200198D01*
X0359224Y0201796D02*
X0397000Y0201796D01*
X0397000Y0203395D02*
X0357626Y0203395D01*
X0356027Y0204993D02*
X0397000Y0204993D01*
X0397000Y0206592D02*
X0354429Y0206592D01*
X0352830Y0208190D02*
X0397000Y0208190D01*
X0397000Y0209789D02*
X0350500Y0209789D01*
X0347900Y0209789D02*
X0295500Y0209789D01*
X0295500Y0211387D02*
X0397000Y0211387D01*
X0397000Y0212986D02*
X0295500Y0212986D01*
X0295500Y0214584D02*
X0397000Y0214584D01*
X0397000Y0216183D02*
X0295500Y0216183D01*
X0295500Y0217781D02*
X0397000Y0217781D01*
X0397000Y0219380D02*
X0295500Y0219380D01*
X0295500Y0220978D02*
X0397000Y0220978D01*
X0397000Y0222577D02*
X0295500Y0222577D01*
X0295500Y0224175D02*
X0397000Y0224175D01*
X0397000Y0225774D02*
X0295500Y0225774D01*
X0295500Y0227372D02*
X0397000Y0227372D01*
X0397000Y0228971D02*
X0296598Y0228971D01*
X0297000Y0230569D02*
X0397000Y0230569D01*
X0397000Y0232168D02*
X0296670Y0232168D01*
X0295299Y0233766D02*
X0397000Y0233766D01*
X0397000Y0235365D02*
X0291211Y0235365D01*
X0289613Y0236963D02*
X0397000Y0236963D01*
X0397000Y0238562D02*
X0288014Y0238562D01*
X0286416Y0240160D02*
X0397000Y0240160D01*
X0397000Y0241759D02*
X0284817Y0241759D01*
X0283219Y0243357D02*
X0397000Y0243357D01*
X0397000Y0244956D02*
X0281620Y0244956D01*
X0280022Y0246554D02*
X0397000Y0246554D01*
X0397000Y0248153D02*
X0278423Y0248153D01*
X0276825Y0249751D02*
X0397000Y0249751D01*
X0397000Y0251350D02*
X0275226Y0251350D01*
X0273628Y0252948D02*
X0397000Y0252948D01*
X0397000Y0254547D02*
X0272029Y0254547D01*
X0270431Y0256146D02*
X0397000Y0256146D01*
X0397000Y0257744D02*
X0268832Y0257744D01*
X0267234Y0259343D02*
X0397000Y0259343D01*
X0397000Y0260941D02*
X0265635Y0260941D01*
X0264037Y0262540D02*
X0397000Y0262540D01*
X0397000Y0264138D02*
X0262438Y0264138D01*
X0260840Y0265737D02*
X0397000Y0265737D01*
X0397000Y0267335D02*
X0259241Y0267335D01*
X0257643Y0268934D02*
X0397000Y0268934D01*
X0397000Y0270532D02*
X0256044Y0270532D01*
X0254445Y0272131D02*
X0397000Y0272131D01*
X0397000Y0273729D02*
X0252847Y0273729D01*
X0251248Y0275328D02*
X0397000Y0275328D01*
X0397000Y0276926D02*
X0249650Y0276926D01*
X0248051Y0278525D02*
X0397000Y0278525D01*
X0397000Y0280123D02*
X0246453Y0280123D01*
X0244854Y0281722D02*
X0397000Y0281722D01*
X0397000Y0283320D02*
X0243256Y0283320D01*
X0241657Y0284919D02*
X0397000Y0284919D01*
X0397000Y0286517D02*
X0240059Y0286517D01*
X0238460Y0288116D02*
X0397000Y0288116D01*
X0397000Y0289714D02*
X0236862Y0289714D01*
X0235718Y0284919D02*
X0221750Y0284919D01*
X0221750Y0283320D02*
X0237316Y0283320D01*
X0238915Y0281722D02*
X0221750Y0281722D01*
X0220417Y0280123D02*
X0240513Y0280123D01*
X0242112Y0278525D02*
X0126000Y0278525D01*
X0126000Y0280123D02*
X0193466Y0280123D01*
X0192050Y0281722D02*
X0124524Y0281722D01*
X0123600Y0283320D02*
X0192050Y0283320D01*
X0192050Y0284919D02*
X0189930Y0284919D01*
X0183670Y0284919D02*
X0169930Y0284919D01*
X0168768Y0283756D02*
X0171550Y0286539D01*
X0171550Y0290474D01*
X0168768Y0293256D01*
X0164832Y0293256D01*
X0162050Y0290474D01*
X0162050Y0286539D01*
X0164832Y0283756D01*
X0168768Y0283756D01*
X0171528Y0286517D02*
X0182072Y0286517D01*
X0182050Y0288116D02*
X0171550Y0288116D01*
X0171550Y0289714D02*
X0182050Y0289714D01*
X0182889Y0291313D02*
X0170711Y0291313D01*
X0169113Y0292911D02*
X0184487Y0292911D01*
X0189113Y0292911D02*
X0397000Y0292911D01*
X0397000Y0291313D02*
X0190711Y0291313D01*
X0201550Y0284919D02*
X0211850Y0284919D01*
X0211850Y0283320D02*
X0201550Y0283320D01*
X0201550Y0281722D02*
X0211850Y0281722D01*
X0213183Y0280123D02*
X0200134Y0280123D01*
X0191550Y0275474D02*
X0191550Y0271539D01*
X0188768Y0268756D01*
X0184832Y0268756D01*
X0182050Y0271539D01*
X0182050Y0275474D01*
X0184832Y0278256D01*
X0188768Y0278256D01*
X0191550Y0275474D01*
X0191550Y0275328D02*
X0245309Y0275328D01*
X0243710Y0276926D02*
X0190098Y0276926D01*
X0191550Y0273729D02*
X0246907Y0273729D01*
X0248506Y0272131D02*
X0191550Y0272131D01*
X0190543Y0270532D02*
X0250104Y0270532D01*
X0251703Y0268934D02*
X0188945Y0268934D01*
X0184655Y0268934D02*
X0168945Y0268934D01*
X0168768Y0268756D02*
X0171550Y0271539D01*
X0171550Y0275474D01*
X0168768Y0278256D01*
X0164832Y0278256D01*
X0162050Y0275474D01*
X0162050Y0271539D01*
X0164400Y0269189D01*
X0164400Y0263476D01*
X0156000Y0255076D01*
X0156000Y0255246D01*
X0153540Y0257706D01*
X0150520Y0257706D01*
X0148470Y0259756D01*
X0117870Y0259756D01*
X0103320Y0274306D01*
X0103540Y0274306D01*
X0106000Y0276767D01*
X0106000Y0280246D01*
X0103540Y0282706D01*
X0100060Y0282706D01*
X0097600Y0280246D01*
X0097600Y0280026D01*
X0097170Y0280456D01*
X0050790Y0280456D01*
X0048540Y0282706D01*
X0045060Y0282706D01*
X0042600Y0280246D01*
X0042600Y0276767D01*
X0043860Y0275506D01*
X0032820Y0275506D01*
X0031000Y0277326D01*
X0031000Y0280246D01*
X0028540Y0282706D01*
X0025060Y0282706D01*
X0022600Y0280246D01*
X0022600Y0276767D01*
X0025060Y0274306D01*
X0028080Y0274306D01*
X0031080Y0271306D01*
X0077109Y0271306D01*
X0078061Y0270354D01*
X0079384Y0269806D01*
X0080816Y0269806D01*
X0082139Y0270354D01*
X0083152Y0271367D01*
X0083700Y0272690D01*
X0083700Y0274122D01*
X0083152Y0275446D01*
X0082341Y0276256D01*
X0095430Y0276256D01*
X0114520Y0257166D01*
X0112600Y0255246D01*
X0112600Y0251767D01*
X0112710Y0251656D01*
X0080890Y0251656D01*
X0081000Y0251767D01*
X0081000Y0255246D01*
X0078540Y0257706D01*
X0075060Y0257706D01*
X0072600Y0255246D01*
X0072600Y0251767D01*
X0072710Y0251656D01*
X0069600Y0251656D01*
X0069600Y0254215D01*
X0070552Y0255167D01*
X0071100Y0256490D01*
X0071100Y0257922D01*
X0070552Y0259246D01*
X0069539Y0260258D01*
X0068216Y0260806D01*
X0066784Y0260806D01*
X0065461Y0260258D01*
X0064448Y0259246D01*
X0063900Y0257922D01*
X0063900Y0257346D01*
X0063540Y0257706D01*
X0060060Y0257706D01*
X0057600Y0255246D01*
X0057600Y0251767D01*
X0060060Y0249306D01*
X0063540Y0249306D01*
X0065400Y0251167D01*
X0065400Y0221686D01*
X0071780Y0215306D01*
X0070965Y0215306D01*
X0069421Y0214667D01*
X0068239Y0213485D01*
X0067600Y0211942D01*
X0067600Y0205071D01*
X0068239Y0203527D01*
X0069421Y0202346D01*
X0070965Y0201706D01*
X0072635Y0201706D01*
X0074011Y0202276D01*
X0083730Y0192556D01*
X0107070Y0192556D01*
X0108300Y0193786D01*
X0135870Y0221356D01*
X0143010Y0221356D01*
X0145060Y0219306D01*
X0148540Y0219306D01*
X0151000Y0221767D01*
X0151000Y0225246D01*
X0148540Y0227706D01*
X0145060Y0227706D01*
X0142910Y0225556D01*
X0134130Y0225556D01*
X0116000Y0207426D01*
X0116000Y0211942D01*
X0115361Y0213485D01*
X0114179Y0214667D01*
X0112635Y0215306D01*
X0110965Y0215306D01*
X0109421Y0214667D01*
X0108239Y0213485D01*
X0107600Y0211942D01*
X0107600Y0205071D01*
X0108239Y0203527D01*
X0109421Y0202346D01*
X0110481Y0201907D01*
X0105330Y0196756D01*
X0089225Y0196756D01*
X0089550Y0197540D01*
X0089550Y0198972D01*
X0089002Y0200296D01*
X0088050Y0201247D01*
X0088050Y0203985D01*
X0088239Y0203527D01*
X0089421Y0202346D01*
X0090965Y0201706D01*
X0092635Y0201706D01*
X0094179Y0202346D01*
X0095361Y0203527D01*
X0096000Y0205071D01*
X0096000Y0211942D01*
X0095361Y0213485D01*
X0094179Y0214667D01*
X0092635Y0215306D01*
X0090965Y0215306D01*
X0089421Y0214667D01*
X0088239Y0213485D01*
X0087600Y0211942D01*
X0087600Y0205426D01*
X0086000Y0207026D01*
X0086000Y0211942D01*
X0085361Y0213485D01*
X0084179Y0214667D01*
X0082635Y0215306D01*
X0080965Y0215306D01*
X0079421Y0214667D01*
X0078890Y0214136D01*
X0069600Y0223426D01*
X0069600Y0247456D01*
X0154320Y0247456D01*
X0155550Y0248686D01*
X0155550Y0248686D01*
X0168600Y0261736D01*
X0168600Y0268756D01*
X0168768Y0268756D01*
X0168600Y0267335D02*
X0253301Y0267335D01*
X0254900Y0265737D02*
X0168600Y0265737D01*
X0168600Y0264138D02*
X0256498Y0264138D01*
X0258097Y0262540D02*
X0168600Y0262540D01*
X0167805Y0260941D02*
X0259695Y0260941D01*
X0261294Y0259343D02*
X0166206Y0259343D01*
X0164608Y0257744D02*
X0262892Y0257744D01*
X0264491Y0256146D02*
X0163009Y0256146D01*
X0161411Y0254547D02*
X0266089Y0254547D01*
X0267688Y0252948D02*
X0159812Y0252948D01*
X0158214Y0251350D02*
X0269286Y0251350D01*
X0270885Y0249751D02*
X0156615Y0249751D01*
X0155017Y0248153D02*
X0272483Y0248153D01*
X0274082Y0246554D02*
X0164692Y0246554D01*
X0166000Y0244956D02*
X0275680Y0244956D01*
X0277279Y0243357D02*
X0166000Y0243357D01*
X0165992Y0241759D02*
X0278878Y0241759D01*
X0280476Y0240160D02*
X0164394Y0240160D01*
X0164100Y0238562D02*
X0282075Y0238562D01*
X0283673Y0236963D02*
X0164100Y0236963D01*
X0164100Y0235365D02*
X0285272Y0235365D01*
X0286870Y0233766D02*
X0164100Y0233766D01*
X0164100Y0232168D02*
X0288469Y0232168D01*
X0289800Y0230569D02*
X0164100Y0230569D01*
X0164100Y0228971D02*
X0290202Y0228971D01*
X0291300Y0227372D02*
X0164100Y0227372D01*
X0164100Y0225774D02*
X0291300Y0225774D01*
X0291300Y0224175D02*
X0164100Y0224175D01*
X0164100Y0222577D02*
X0291300Y0222577D01*
X0297939Y0200198D02*
X0204276Y0200198D01*
X0204276Y0198599D02*
X0299537Y0198599D01*
X0301136Y0197001D02*
X0204276Y0197001D01*
X0204276Y0195402D02*
X0302734Y0195402D01*
X0304333Y0193804D02*
X0204276Y0193804D01*
X0204276Y0192205D02*
X0305931Y0192205D01*
X0307530Y0190607D02*
X0204276Y0190607D01*
X0203718Y0189008D02*
X0309128Y0189008D01*
X0299968Y0182614D02*
X0191412Y0182614D01*
X0193011Y0181015D02*
X0298370Y0181015D01*
X0297600Y0179417D02*
X0264549Y0179417D01*
X0266915Y0177818D02*
X0297600Y0177818D01*
X0298147Y0176220D02*
X0268140Y0176220D01*
X0268802Y0174621D02*
X0299745Y0174621D01*
X0315750Y0174621D02*
X0316500Y0174621D01*
X0316500Y0173023D02*
X0315750Y0173023D01*
X0315750Y0171424D02*
X0316500Y0171424D01*
X0316500Y0169826D02*
X0315750Y0169826D01*
X0315750Y0168227D02*
X0316500Y0168227D01*
X0316500Y0166629D02*
X0315750Y0166629D01*
X0315750Y0165030D02*
X0316500Y0165030D01*
X0316500Y0163432D02*
X0315750Y0163432D01*
X0315750Y0161833D02*
X0316500Y0161833D01*
X0316500Y0160235D02*
X0315750Y0160235D01*
X0315750Y0158636D02*
X0316500Y0158636D01*
X0316500Y0157038D02*
X0315750Y0157038D01*
X0315203Y0155439D02*
X0316500Y0155439D01*
X0316500Y0153841D02*
X0313604Y0153841D01*
X0312006Y0152242D02*
X0316500Y0152242D01*
X0316500Y0150644D02*
X0310407Y0150644D01*
X0308809Y0149045D02*
X0316500Y0149045D01*
X0316500Y0147447D02*
X0307210Y0147447D01*
X0305612Y0145848D02*
X0316500Y0145848D01*
X0316500Y0144250D02*
X0304013Y0144250D01*
X0302415Y0142651D02*
X0316500Y0142651D01*
X0316500Y0141053D02*
X0300816Y0141053D01*
X0299218Y0139454D02*
X0316500Y0139454D01*
X0316500Y0137856D02*
X0297619Y0137856D01*
X0295491Y0136257D02*
X0316500Y0136257D01*
X0316500Y0134659D02*
X0301789Y0134659D01*
X0302752Y0133060D02*
X0316500Y0133060D01*
X0316500Y0131462D02*
X0302864Y0131462D01*
X0304463Y0129863D02*
X0316500Y0129863D01*
X0316500Y0128265D02*
X0306062Y0128265D01*
X0307660Y0126666D02*
X0316500Y0126666D01*
X0316500Y0125068D02*
X0309259Y0125068D01*
X0310857Y0123469D02*
X0316500Y0123469D01*
X0316500Y0121871D02*
X0312456Y0121871D01*
X0314054Y0120272D02*
X0316500Y0120272D01*
X0320700Y0120272D02*
X0397000Y0120272D01*
X0397000Y0118674D02*
X0320700Y0118674D01*
X0320700Y0117075D02*
X0397000Y0117075D01*
X0397000Y0115477D02*
X0320700Y0115477D01*
X0320700Y0113878D02*
X0397000Y0113878D01*
X0397000Y0112280D02*
X0341228Y0112280D01*
X0341110Y0112564D02*
X0340267Y0113406D01*
X0339167Y0113862D01*
X0337976Y0113862D01*
X0336876Y0113406D01*
X0336800Y0113331D01*
X0336724Y0113406D01*
X0335624Y0113862D01*
X0334433Y0113862D01*
X0333333Y0113406D01*
X0332490Y0112564D01*
X0332035Y0111464D01*
X0332035Y0110273D01*
X0332490Y0109173D01*
X0333157Y0108506D01*
X0332490Y0107840D01*
X0332035Y0106740D01*
X0332035Y0105549D01*
X0332490Y0104448D01*
X0333333Y0103606D01*
X0334433Y0103150D01*
X0335624Y0103150D01*
X0336724Y0103606D01*
X0336800Y0103682D01*
X0336876Y0103606D01*
X0337976Y0103150D01*
X0339167Y0103150D01*
X0340267Y0103606D01*
X0341110Y0104448D01*
X0341565Y0105549D01*
X0341565Y0106740D01*
X0341110Y0107840D01*
X0340443Y0108506D01*
X0341110Y0109173D01*
X0341565Y0110273D01*
X0341565Y0111464D01*
X0341110Y0112564D01*
X0341565Y0110681D02*
X0397000Y0110681D01*
X0397000Y0109082D02*
X0390213Y0109082D01*
X0393449Y0107484D02*
X0397000Y0107484D01*
X0397000Y0105885D02*
X0395117Y0105885D01*
X0396279Y0104287D02*
X0397000Y0104287D01*
X0383387Y0109082D02*
X0341019Y0109082D01*
X0341257Y0107484D02*
X0380151Y0107484D01*
X0378483Y0105885D02*
X0341565Y0105885D01*
X0340948Y0104287D02*
X0377321Y0104287D01*
X0376430Y0102688D02*
X0320700Y0102688D01*
X0320700Y0101090D02*
X0376002Y0101090D01*
X0375701Y0099491D02*
X0320700Y0099491D01*
X0320700Y0097893D02*
X0375701Y0097893D01*
X0375902Y0096294D02*
X0321673Y0096294D01*
X0322200Y0094696D02*
X0376330Y0094696D01*
X0377107Y0093097D02*
X0321996Y0093097D01*
X0320884Y0091499D02*
X0378111Y0091499D01*
X0379709Y0089900D02*
X0139134Y0089900D01*
X0140732Y0091499D02*
X0301016Y0091499D01*
X0300168Y0093097D02*
X0141000Y0093097D01*
X0141000Y0094696D02*
X0300201Y0094696D01*
X0301097Y0096294D02*
X0139952Y0096294D01*
X0135733Y0097893D02*
X0302567Y0097893D01*
X0304165Y0099491D02*
X0134135Y0099491D01*
X0132536Y0101090D02*
X0305764Y0101090D01*
X0307362Y0102688D02*
X0130938Y0102688D01*
X0129339Y0104287D02*
X0308961Y0104287D01*
X0310559Y0105885D02*
X0281233Y0105885D01*
X0281749Y0106099D02*
X0284207Y0108557D01*
X0285537Y0111768D01*
X0285537Y0115244D01*
X0284207Y0118455D01*
X0281749Y0120913D01*
X0278538Y0122243D01*
X0275062Y0122243D01*
X0271851Y0120913D01*
X0269393Y0118455D01*
X0268063Y0115244D01*
X0268063Y0111768D01*
X0269393Y0108557D01*
X0271851Y0106099D01*
X0275062Y0104769D01*
X0278538Y0104769D01*
X0281749Y0106099D01*
X0283134Y0107484D02*
X0311400Y0107484D01*
X0311818Y0109082D02*
X0284424Y0109082D01*
X0285087Y0110681D02*
X0313619Y0110681D01*
X0316381Y0110681D02*
X0316500Y0110681D01*
X0316500Y0112280D02*
X0285537Y0112280D01*
X0285537Y0113878D02*
X0312387Y0113878D01*
X0311468Y0115477D02*
X0285441Y0115477D01*
X0284779Y0117075D02*
X0311311Y0117075D01*
X0309713Y0118674D02*
X0283989Y0118674D01*
X0282390Y0120272D02*
X0308114Y0120272D01*
X0306516Y0121871D02*
X0279438Y0121871D01*
X0274162Y0121871D02*
X0239438Y0121871D01*
X0238538Y0122243D02*
X0235062Y0122243D01*
X0231851Y0120913D01*
X0229393Y0118455D01*
X0228063Y0115244D01*
X0228063Y0111768D01*
X0229393Y0108557D01*
X0231851Y0106099D01*
X0235062Y0104769D01*
X0238538Y0104769D01*
X0241749Y0106099D01*
X0244207Y0108557D01*
X0245537Y0111768D01*
X0245537Y0115244D01*
X0244207Y0118455D01*
X0241749Y0120913D01*
X0238538Y0122243D01*
X0242390Y0120272D02*
X0271210Y0120272D01*
X0269611Y0118674D02*
X0243989Y0118674D01*
X0244779Y0117075D02*
X0268821Y0117075D01*
X0268159Y0115477D02*
X0245441Y0115477D01*
X0245537Y0113878D02*
X0268063Y0113878D01*
X0268063Y0112280D02*
X0245537Y0112280D01*
X0245087Y0110681D02*
X0268513Y0110681D01*
X0269176Y0109082D02*
X0244424Y0109082D01*
X0243134Y0107484D02*
X0270466Y0107484D01*
X0272367Y0105885D02*
X0241233Y0105885D01*
X0232367Y0105885D02*
X0127741Y0105885D01*
X0126142Y0107484D02*
X0161922Y0107484D01*
X0161922Y0106968D02*
X0162860Y0106030D01*
X0174520Y0106030D01*
X0175457Y0106968D01*
X0175457Y0118628D01*
X0174520Y0119565D01*
X0162860Y0119565D01*
X0161922Y0118628D01*
X0161922Y0106968D01*
X0161922Y0109082D02*
X0124544Y0109082D01*
X0122945Y0110681D02*
X0133686Y0110681D01*
X0132600Y0111767D02*
X0135060Y0109306D01*
X0138540Y0109306D01*
X0141000Y0111767D01*
X0141000Y0115246D01*
X0138540Y0117706D01*
X0135060Y0117706D01*
X0132600Y0115246D01*
X0132600Y0111767D01*
X0132600Y0112280D02*
X0124443Y0112280D01*
X0126042Y0113878D02*
X0132600Y0113878D01*
X0132831Y0115477D02*
X0127640Y0115477D01*
X0129239Y0117075D02*
X0134429Y0117075D01*
X0132436Y0120272D02*
X0185100Y0120272D01*
X0185100Y0121871D02*
X0134034Y0121871D01*
X0135633Y0123469D02*
X0185100Y0123469D01*
X0185100Y0125068D02*
X0137231Y0125068D01*
X0138830Y0126666D02*
X0185100Y0126666D01*
X0185100Y0128265D02*
X0140428Y0128265D01*
X0142027Y0129863D02*
X0185100Y0129863D01*
X0186286Y0131462D02*
X0143625Y0131462D01*
X0145224Y0133060D02*
X0187884Y0133060D01*
X0189483Y0134659D02*
X0146822Y0134659D01*
X0148421Y0136257D02*
X0191081Y0136257D01*
X0192680Y0137856D02*
X0150019Y0137856D01*
X0151618Y0139454D02*
X0194278Y0139454D01*
X0195877Y0141053D02*
X0153216Y0141053D01*
X0154200Y0142651D02*
X0197475Y0142651D01*
X0199074Y0144250D02*
X0154200Y0144250D01*
X0154200Y0145848D02*
X0200672Y0145848D01*
X0202271Y0147447D02*
X0154200Y0147447D01*
X0154344Y0149045D02*
X0203869Y0149045D01*
X0205468Y0150644D02*
X0155943Y0150644D01*
X0156900Y0152242D02*
X0206700Y0152242D01*
X0206700Y0153841D02*
X0156900Y0153841D01*
X0156872Y0155439D02*
X0206728Y0155439D01*
X0208326Y0157038D02*
X0155274Y0157038D01*
X0149326Y0157038D02*
X0139208Y0157038D01*
X0138540Y0157706D02*
X0135060Y0157706D01*
X0132600Y0155246D01*
X0132600Y0151767D01*
X0135060Y0149306D01*
X0138540Y0149306D01*
X0141000Y0151767D01*
X0141000Y0155246D01*
X0138540Y0157706D01*
X0140807Y0155439D02*
X0147728Y0155439D01*
X0147700Y0153841D02*
X0141000Y0153841D01*
X0141000Y0152242D02*
X0147700Y0152242D01*
X0148657Y0150644D02*
X0139877Y0150644D01*
X0133723Y0150644D02*
X0099877Y0150644D01*
X0101000Y0152242D02*
X0132600Y0152242D01*
X0132600Y0153841D02*
X0101000Y0153841D01*
X0100807Y0155439D02*
X0132793Y0155439D01*
X0134392Y0157038D02*
X0099208Y0157038D01*
X0087238Y0145848D02*
X0006600Y0145848D01*
X0006600Y0147447D02*
X0085640Y0147447D01*
X0084041Y0149045D02*
X0006600Y0149045D01*
X0006600Y0150644D02*
X0082443Y0150644D01*
X0080005Y0142651D02*
X0043595Y0142651D01*
X0045193Y0141053D02*
X0078407Y0141053D01*
X0077600Y0139454D02*
X0046000Y0139454D01*
X0046000Y0137856D02*
X0077600Y0137856D01*
X0078109Y0136257D02*
X0045491Y0136257D01*
X0043892Y0134659D02*
X0079708Y0134659D01*
X0077525Y0118406D02*
X0075724Y0117660D01*
X0074346Y0116282D01*
X0073600Y0114481D01*
X0073600Y0112532D01*
X0074346Y0110731D01*
X0075724Y0109352D01*
X0077525Y0108606D01*
X0086075Y0108606D01*
X0087876Y0109352D01*
X0089254Y0110731D01*
X0090000Y0112532D01*
X0090000Y0114481D01*
X0089254Y0116282D01*
X0087876Y0117660D01*
X0086075Y0118406D01*
X0077525Y0118406D01*
X0075139Y0117075D02*
X0048461Y0117075D01*
X0049588Y0115477D02*
X0074012Y0115477D01*
X0073600Y0113878D02*
X0050000Y0113878D01*
X0049896Y0112280D02*
X0073704Y0112280D01*
X0074396Y0110681D02*
X0049204Y0110681D01*
X0047224Y0109082D02*
X0076376Y0109082D01*
X0087224Y0109082D02*
X0118604Y0109082D01*
X0117825Y0109861D02*
X0117825Y0109861D01*
X0117005Y0110681D02*
X0099914Y0110681D01*
X0101000Y0111767D02*
X0098540Y0109306D01*
X0095060Y0109306D01*
X0092600Y0111767D01*
X0092600Y0115246D01*
X0095060Y0117706D01*
X0098540Y0117706D01*
X0101000Y0115246D01*
X0101000Y0111767D01*
X0101000Y0112280D02*
X0115407Y0112280D01*
X0113808Y0113878D02*
X0101000Y0113878D01*
X0100769Y0115477D02*
X0112210Y0115477D01*
X0110611Y0117075D02*
X0099171Y0117075D01*
X0094429Y0117075D02*
X0088461Y0117075D01*
X0089588Y0115477D02*
X0092831Y0115477D01*
X0092600Y0113878D02*
X0090000Y0113878D01*
X0089896Y0112280D02*
X0092600Y0112280D01*
X0093686Y0110681D02*
X0089204Y0110681D01*
X0102769Y0136257D02*
X0133611Y0136257D01*
X0139989Y0136257D02*
X0142481Y0136257D01*
X0144080Y0137856D02*
X0101170Y0137856D01*
X0099572Y0139454D02*
X0145678Y0139454D01*
X0139171Y0117075D02*
X0161922Y0117075D01*
X0161922Y0115477D02*
X0140769Y0115477D01*
X0141000Y0113878D02*
X0161922Y0113878D01*
X0161922Y0112280D02*
X0141000Y0112280D01*
X0139914Y0110681D02*
X0161922Y0110681D01*
X0161968Y0118674D02*
X0130837Y0118674D01*
X0175411Y0118674D02*
X0183302Y0118674D01*
X0181507Y0117075D02*
X0175457Y0117075D01*
X0175457Y0115477D02*
X0180585Y0115477D01*
X0180033Y0113878D02*
X0175457Y0113878D01*
X0175457Y0112280D02*
X0180033Y0112280D01*
X0180352Y0110681D02*
X0175457Y0110681D01*
X0175457Y0109082D02*
X0181014Y0109082D01*
X0182543Y0107484D02*
X0175457Y0107484D01*
X0190298Y0118674D02*
X0229611Y0118674D01*
X0228821Y0117075D02*
X0192093Y0117075D01*
X0193015Y0115477D02*
X0228159Y0115477D01*
X0228063Y0113878D02*
X0193567Y0113878D01*
X0193567Y0112280D02*
X0228063Y0112280D01*
X0228513Y0110681D02*
X0193248Y0110681D01*
X0192586Y0109082D02*
X0229176Y0109082D01*
X0230466Y0107484D02*
X0191057Y0107484D01*
X0189300Y0120272D02*
X0231210Y0120272D01*
X0234162Y0121871D02*
X0189300Y0121871D01*
X0189300Y0123469D02*
X0304917Y0123469D01*
X0303319Y0125068D02*
X0189300Y0125068D01*
X0189300Y0126666D02*
X0301720Y0126666D01*
X0300122Y0128265D02*
X0189300Y0128265D01*
X0190627Y0129863D02*
X0254261Y0129863D01*
X0254324Y0129800D02*
X0255930Y0129135D01*
X0257670Y0129135D01*
X0259276Y0129800D01*
X0260506Y0131030D01*
X0261172Y0132637D01*
X0261172Y0134376D01*
X0260506Y0135983D01*
X0259276Y0137212D01*
X0257670Y0137878D01*
X0255930Y0137878D01*
X0254324Y0137212D01*
X0253094Y0135983D01*
X0252428Y0134376D01*
X0252428Y0132637D01*
X0253094Y0131030D01*
X0254324Y0129800D01*
X0252915Y0131462D02*
X0192225Y0131462D01*
X0193824Y0133060D02*
X0252428Y0133060D01*
X0252545Y0134659D02*
X0195422Y0134659D01*
X0197021Y0136257D02*
X0253368Y0136257D01*
X0255877Y0137856D02*
X0198619Y0137856D01*
X0200218Y0139454D02*
X0287600Y0139454D01*
X0287600Y0137856D02*
X0267723Y0137856D01*
X0267670Y0137878D02*
X0265930Y0137878D01*
X0264324Y0137212D01*
X0263094Y0135983D01*
X0262428Y0134376D01*
X0262428Y0132637D01*
X0263094Y0131030D01*
X0264324Y0129800D01*
X0265930Y0129135D01*
X0267670Y0129135D01*
X0269276Y0129800D01*
X0270506Y0131030D01*
X0271172Y0132637D01*
X0271172Y0134376D01*
X0270506Y0135983D01*
X0269276Y0137212D01*
X0267670Y0137878D01*
X0265877Y0137856D02*
X0257723Y0137856D01*
X0260232Y0136257D02*
X0263368Y0136257D01*
X0262545Y0134659D02*
X0261055Y0134659D01*
X0261172Y0133060D02*
X0262428Y0133060D01*
X0262915Y0131462D02*
X0260685Y0131462D01*
X0259339Y0129863D02*
X0264261Y0129863D01*
X0269339Y0129863D02*
X0296402Y0129863D01*
X0295650Y0131462D02*
X0270685Y0131462D01*
X0271172Y0133060D02*
X0295748Y0133060D01*
X0296711Y0134659D02*
X0293892Y0134659D01*
X0289708Y0134659D02*
X0271055Y0134659D01*
X0270232Y0136257D02*
X0288109Y0136257D01*
X0288407Y0141053D02*
X0201816Y0141053D01*
X0203415Y0142651D02*
X0290005Y0142651D01*
X0293595Y0142651D02*
X0296475Y0142651D01*
X0298074Y0144250D02*
X0205013Y0144250D01*
X0206612Y0145848D02*
X0299672Y0145848D01*
X0301271Y0147447D02*
X0208210Y0147447D01*
X0213344Y0149045D02*
X0302869Y0149045D01*
X0304468Y0150644D02*
X0214943Y0150644D01*
X0215900Y0152242D02*
X0306066Y0152242D01*
X0307665Y0153841D02*
X0215900Y0153841D01*
X0204200Y0169826D02*
X0236922Y0169826D01*
X0236922Y0171424D02*
X0202602Y0171424D01*
X0201003Y0173023D02*
X0236922Y0173023D01*
X0236922Y0174621D02*
X0199405Y0174621D01*
X0197806Y0176220D02*
X0236922Y0176220D01*
X0236922Y0177818D02*
X0196208Y0177818D01*
X0194609Y0179417D02*
X0237712Y0179417D01*
X0249668Y0179417D02*
X0259051Y0179417D01*
X0256685Y0177818D02*
X0250457Y0177818D01*
X0250457Y0176220D02*
X0255460Y0176220D01*
X0254798Y0174621D02*
X0250457Y0174621D01*
X0250457Y0173023D02*
X0254633Y0173023D01*
X0254633Y0171424D02*
X0250457Y0171424D01*
X0250457Y0169826D02*
X0255273Y0169826D01*
X0256234Y0168227D02*
X0250457Y0168227D01*
X0250118Y0166629D02*
X0257964Y0166629D01*
X0315750Y0176220D02*
X0316500Y0176220D01*
X0316500Y0177818D02*
X0316000Y0177818D01*
X0316000Y0179417D02*
X0316148Y0179417D01*
X0320700Y0171424D02*
X0397000Y0171424D01*
X0397000Y0169826D02*
X0320700Y0169826D01*
X0320700Y0168227D02*
X0397000Y0168227D01*
X0397000Y0166629D02*
X0320700Y0166629D01*
X0320700Y0165030D02*
X0397000Y0165030D01*
X0397000Y0163432D02*
X0320700Y0163432D01*
X0320700Y0161833D02*
X0397000Y0161833D01*
X0397000Y0160235D02*
X0320700Y0160235D01*
X0320700Y0158636D02*
X0397000Y0158636D01*
X0397000Y0157038D02*
X0320700Y0157038D01*
X0320700Y0155439D02*
X0397000Y0155439D01*
X0397000Y0153841D02*
X0320700Y0153841D01*
X0320700Y0152242D02*
X0397000Y0152242D01*
X0397000Y0150644D02*
X0320700Y0150644D01*
X0320700Y0149045D02*
X0397000Y0149045D01*
X0397000Y0147447D02*
X0320700Y0147447D01*
X0320700Y0145848D02*
X0397000Y0145848D01*
X0397000Y0144250D02*
X0320700Y0144250D01*
X0320700Y0142651D02*
X0329722Y0142651D01*
X0329977Y0142906D02*
X0327400Y0140329D01*
X0327400Y0138506D01*
X0327400Y0136684D01*
X0329977Y0134106D01*
X0331800Y0134106D01*
X0333623Y0134106D01*
X0336200Y0136684D01*
X0336200Y0138506D01*
X0331800Y0138506D01*
X0331800Y0134106D01*
X0331800Y0138506D01*
X0331800Y0138506D01*
X0331800Y0138506D01*
X0327400Y0138506D01*
X0331800Y0138506D01*
X0331800Y0138506D01*
X0336200Y0138506D01*
X0336200Y0140329D01*
X0333623Y0142906D01*
X0331800Y0142906D01*
X0329977Y0142906D01*
X0331800Y0142906D02*
X0331800Y0138506D01*
X0331800Y0138506D01*
X0331800Y0142906D01*
X0331800Y0142651D02*
X0331800Y0142651D01*
X0331800Y0141053D02*
X0331800Y0141053D01*
X0331800Y0139454D02*
X0331800Y0139454D01*
X0331800Y0137856D02*
X0331800Y0137856D01*
X0331800Y0136257D02*
X0331800Y0136257D01*
X0331800Y0134659D02*
X0331800Y0134659D01*
X0334175Y0134659D02*
X0367811Y0134659D01*
X0367861Y0134708D02*
X0366848Y0133696D01*
X0366300Y0132372D01*
X0366300Y0130940D01*
X0366848Y0129617D01*
X0367861Y0128604D01*
X0369184Y0128056D01*
X0370530Y0128056D01*
X0372180Y0126406D01*
X0381759Y0126406D01*
X0382711Y0125454D01*
X0384034Y0124906D01*
X0385466Y0124906D01*
X0386789Y0125454D01*
X0387802Y0126467D01*
X0388350Y0127790D01*
X0388350Y0129222D01*
X0387802Y0130546D01*
X0386789Y0131558D01*
X0385466Y0132106D01*
X0384034Y0132106D01*
X0382711Y0131558D01*
X0381759Y0130606D01*
X0373920Y0130606D01*
X0373500Y0131026D01*
X0373500Y0132372D01*
X0372952Y0133696D01*
X0371939Y0134708D01*
X0370616Y0135256D01*
X0369184Y0135256D01*
X0367861Y0134708D01*
X0366585Y0133060D02*
X0320700Y0133060D01*
X0320700Y0131462D02*
X0366300Y0131462D01*
X0366746Y0129863D02*
X0320700Y0129863D01*
X0320700Y0128265D02*
X0368681Y0128265D01*
X0371920Y0126666D02*
X0320700Y0126666D01*
X0320700Y0125068D02*
X0383645Y0125068D01*
X0385855Y0125068D02*
X0397000Y0125068D01*
X0397000Y0126666D02*
X0387884Y0126666D01*
X0388350Y0128265D02*
X0397000Y0128265D01*
X0397000Y0129863D02*
X0388085Y0129863D01*
X0386886Y0131462D02*
X0397000Y0131462D01*
X0397000Y0133060D02*
X0373215Y0133060D01*
X0373500Y0131462D02*
X0382614Y0131462D01*
X0371989Y0134659D02*
X0397000Y0134659D01*
X0397000Y0136257D02*
X0335773Y0136257D01*
X0336200Y0137856D02*
X0397000Y0137856D01*
X0397000Y0139454D02*
X0336200Y0139454D01*
X0335476Y0141053D02*
X0397000Y0141053D01*
X0397000Y0142651D02*
X0333878Y0142651D01*
X0328124Y0141053D02*
X0320700Y0141053D01*
X0320700Y0139454D02*
X0327400Y0139454D01*
X0327400Y0137856D02*
X0320700Y0137856D01*
X0320700Y0136257D02*
X0327827Y0136257D01*
X0329425Y0134659D02*
X0320700Y0134659D01*
X0320700Y0123469D02*
X0397000Y0123469D01*
X0397000Y0121871D02*
X0320700Y0121871D01*
X0320700Y0112280D02*
X0332372Y0112280D01*
X0332035Y0110681D02*
X0320700Y0110681D01*
X0320700Y0109082D02*
X0332581Y0109082D01*
X0332343Y0107484D02*
X0320700Y0107484D01*
X0320700Y0105885D02*
X0332035Y0105885D01*
X0332652Y0104287D02*
X0320700Y0104287D01*
X0316500Y0102688D02*
X0313302Y0102688D01*
X0311703Y0101090D02*
X0316500Y0101090D01*
X0316500Y0099491D02*
X0310105Y0099491D01*
X0308506Y0097893D02*
X0316500Y0097893D01*
X0315527Y0096294D02*
X0306908Y0096294D01*
X0307299Y0094696D02*
X0315000Y0094696D01*
X0315204Y0093097D02*
X0307332Y0093097D01*
X0306484Y0091499D02*
X0316316Y0091499D01*
X0198261Y0169826D02*
X0115839Y0169826D01*
X0117438Y0171424D02*
X0196662Y0171424D01*
X0195064Y0173023D02*
X0119036Y0173023D01*
X0120635Y0174621D02*
X0193465Y0174621D01*
X0191866Y0176220D02*
X0122234Y0176220D01*
X0123832Y0177818D02*
X0190268Y0177818D01*
X0188669Y0179417D02*
X0125431Y0179417D01*
X0127029Y0181015D02*
X0187071Y0181015D01*
X0185472Y0182614D02*
X0128628Y0182614D01*
X0125885Y0185811D02*
X0097765Y0185811D01*
X0104633Y0184213D02*
X0108967Y0184213D01*
X0107878Y0182614D02*
X0105722Y0182614D01*
X0106000Y0181015D02*
X0107600Y0181015D01*
X0107600Y0179417D02*
X0106000Y0179417D01*
X0106000Y0177818D02*
X0107600Y0177818D01*
X0107600Y0176220D02*
X0106000Y0176220D01*
X0105814Y0174621D02*
X0107786Y0174621D01*
X0116000Y0176220D02*
X0116294Y0176220D01*
X0116000Y0177818D02*
X0117892Y0177818D01*
X0119491Y0179417D02*
X0116000Y0179417D01*
X0116000Y0181015D02*
X0121089Y0181015D01*
X0122688Y0182614D02*
X0115722Y0182614D01*
X0114633Y0184213D02*
X0124286Y0184213D01*
X0127400Y0187410D02*
X0067367Y0187410D01*
X0065768Y0189008D02*
X0127400Y0189008D01*
X0127678Y0190607D02*
X0064170Y0190607D01*
X0062571Y0192205D02*
X0129276Y0192205D01*
X0134324Y0192205D02*
X0159276Y0192205D01*
X0159977Y0192906D02*
X0157400Y0190329D01*
X0157400Y0186684D01*
X0159977Y0184106D01*
X0163623Y0184106D01*
X0166200Y0186684D01*
X0166200Y0190329D01*
X0163623Y0192906D01*
X0159977Y0192906D01*
X0157678Y0190607D02*
X0135922Y0190607D01*
X0136200Y0189008D02*
X0157400Y0189008D01*
X0157400Y0187410D02*
X0136200Y0187410D01*
X0135327Y0185811D02*
X0158273Y0185811D01*
X0159871Y0184213D02*
X0133729Y0184213D01*
X0116310Y0201796D02*
X0157600Y0201796D01*
X0157600Y0203395D02*
X0117908Y0203395D01*
X0119507Y0204993D02*
X0157600Y0204993D01*
X0158946Y0206592D02*
X0121105Y0206592D01*
X0122704Y0208190D02*
X0159900Y0208190D01*
X0159900Y0209789D02*
X0124302Y0209789D01*
X0125901Y0211387D02*
X0159900Y0211387D01*
X0159900Y0212986D02*
X0127499Y0212986D01*
X0129098Y0214584D02*
X0159900Y0214584D01*
X0159900Y0216183D02*
X0130696Y0216183D01*
X0132295Y0217781D02*
X0159900Y0217781D01*
X0159900Y0219380D02*
X0148613Y0219380D01*
X0150212Y0220978D02*
X0159900Y0220978D01*
X0159900Y0222577D02*
X0151000Y0222577D01*
X0151000Y0224175D02*
X0159900Y0224175D01*
X0159900Y0225774D02*
X0150472Y0225774D01*
X0148874Y0227372D02*
X0159900Y0227372D01*
X0159900Y0228971D02*
X0069600Y0228971D01*
X0069600Y0230569D02*
X0159900Y0230569D01*
X0159900Y0232168D02*
X0069600Y0232168D01*
X0069600Y0233766D02*
X0159900Y0233766D01*
X0159900Y0235365D02*
X0069600Y0235365D01*
X0069600Y0236963D02*
X0159900Y0236963D01*
X0159900Y0238562D02*
X0069600Y0238562D01*
X0069600Y0240160D02*
X0159206Y0240160D01*
X0157608Y0241759D02*
X0069600Y0241759D01*
X0069600Y0243357D02*
X0157600Y0243357D01*
X0157600Y0244956D02*
X0069600Y0244956D01*
X0069600Y0246554D02*
X0158908Y0246554D01*
X0157069Y0256146D02*
X0155100Y0256146D01*
X0158668Y0257744D02*
X0150482Y0257744D01*
X0148884Y0259343D02*
X0160266Y0259343D01*
X0161865Y0260941D02*
X0116685Y0260941D01*
X0115087Y0262540D02*
X0163463Y0262540D01*
X0164400Y0264138D02*
X0113488Y0264138D01*
X0111890Y0265737D02*
X0164400Y0265737D01*
X0164400Y0267335D02*
X0110291Y0267335D01*
X0108693Y0268934D02*
X0164400Y0268934D01*
X0163057Y0270532D02*
X0107094Y0270532D01*
X0105495Y0272131D02*
X0162050Y0272131D01*
X0162050Y0273729D02*
X0103897Y0273729D01*
X0104561Y0275328D02*
X0119039Y0275328D01*
X0117600Y0276926D02*
X0106000Y0276926D01*
X0106000Y0278525D02*
X0117600Y0278525D01*
X0117600Y0280123D02*
X0106000Y0280123D01*
X0104524Y0281722D02*
X0119076Y0281722D01*
X0119400Y0283320D02*
X0006600Y0283320D01*
X0006600Y0281722D02*
X0024076Y0281722D01*
X0022600Y0280123D02*
X0006600Y0280123D01*
X0006600Y0278525D02*
X0022600Y0278525D01*
X0022600Y0276926D02*
X0006600Y0276926D01*
X0006600Y0275328D02*
X0024039Y0275328D01*
X0028657Y0273729D02*
X0006600Y0273729D01*
X0006600Y0272131D02*
X0030256Y0272131D01*
X0031400Y0276926D02*
X0042600Y0276926D01*
X0042600Y0278525D02*
X0031000Y0278525D01*
X0031000Y0280123D02*
X0042600Y0280123D01*
X0044076Y0281722D02*
X0029524Y0281722D01*
X0023540Y0294306D02*
X0020060Y0294306D01*
X0017600Y0296767D01*
X0017600Y0300246D01*
X0020060Y0302706D01*
X0023540Y0302706D01*
X0026000Y0300246D01*
X0026000Y0296767D01*
X0023540Y0294306D01*
X0023743Y0294510D02*
X0059857Y0294510D01*
X0060060Y0294306D02*
X0063540Y0294306D01*
X0065740Y0296506D01*
X0092860Y0296506D01*
X0095060Y0294306D01*
X0098540Y0294306D01*
X0101000Y0296767D01*
X0101000Y0300246D01*
X0098540Y0302706D01*
X0095060Y0302706D01*
X0093060Y0300706D01*
X0065540Y0300706D01*
X0063540Y0302706D01*
X0060060Y0302706D01*
X0057600Y0300246D01*
X0057600Y0296767D01*
X0060060Y0294306D01*
X0058258Y0296108D02*
X0025342Y0296108D01*
X0026000Y0297707D02*
X0057600Y0297707D01*
X0057600Y0299305D02*
X0026000Y0299305D01*
X0025342Y0300904D02*
X0058258Y0300904D01*
X0059856Y0302502D02*
X0023744Y0302502D01*
X0019856Y0302502D02*
X0006600Y0302502D01*
X0006600Y0300904D02*
X0018258Y0300904D01*
X0017600Y0299305D02*
X0006600Y0299305D01*
X0006600Y0297707D02*
X0017600Y0297707D01*
X0018258Y0296108D02*
X0006600Y0296108D01*
X0006600Y0294510D02*
X0019857Y0294510D01*
X0006600Y0292911D02*
X0119400Y0292911D01*
X0119400Y0291313D02*
X0006600Y0291313D01*
X0006600Y0289714D02*
X0119400Y0289714D01*
X0119400Y0288116D02*
X0006600Y0288116D01*
X0006600Y0286517D02*
X0119400Y0286517D01*
X0119400Y0284919D02*
X0006600Y0284919D01*
X0006600Y0270532D02*
X0077883Y0270532D01*
X0082317Y0270532D02*
X0101154Y0270532D01*
X0099556Y0272131D02*
X0083468Y0272131D01*
X0083700Y0273729D02*
X0097957Y0273729D01*
X0096359Y0275328D02*
X0083201Y0275328D01*
X0097503Y0280123D02*
X0097600Y0280123D01*
X0099076Y0281722D02*
X0049524Y0281722D01*
X0063743Y0294510D02*
X0094857Y0294510D01*
X0093258Y0296108D02*
X0065342Y0296108D01*
X0065342Y0300904D02*
X0093258Y0300904D01*
X0094856Y0302502D02*
X0063744Y0302502D01*
X0072600Y0311767D02*
X0075060Y0309306D01*
X0078540Y0309306D01*
X0081000Y0311767D01*
X0081000Y0315246D01*
X0078540Y0317706D01*
X0075060Y0317706D01*
X0072600Y0315246D01*
X0072600Y0311767D01*
X0072600Y0312093D02*
X0006600Y0312093D01*
X0006600Y0310495D02*
X0073872Y0310495D01*
X0072600Y0313692D02*
X0006600Y0313692D01*
X0006600Y0315290D02*
X0072644Y0315290D01*
X0074243Y0316889D02*
X0006600Y0316889D01*
X0006600Y0318487D02*
X0119400Y0318487D01*
X0119400Y0316889D02*
X0099357Y0316889D01*
X0098540Y0317706D02*
X0095060Y0317706D01*
X0092600Y0315246D01*
X0092600Y0311767D01*
X0095060Y0309306D01*
X0098540Y0309306D01*
X0101000Y0311767D01*
X0101000Y0315246D01*
X0098540Y0317706D01*
X0100956Y0315290D02*
X0119400Y0315290D01*
X0119400Y0313692D02*
X0101000Y0313692D01*
X0101000Y0312093D02*
X0119400Y0312093D01*
X0119400Y0310495D02*
X0099728Y0310495D01*
X0093872Y0310495D02*
X0079728Y0310495D01*
X0081000Y0312093D02*
X0092600Y0312093D01*
X0092600Y0313692D02*
X0081000Y0313692D01*
X0080956Y0315290D02*
X0092644Y0315290D01*
X0094243Y0316889D02*
X0079357Y0316889D01*
X0098744Y0302502D02*
X0119400Y0302502D01*
X0119400Y0300904D02*
X0100342Y0300904D01*
X0101000Y0299305D02*
X0119400Y0299305D01*
X0119400Y0297707D02*
X0101000Y0297707D01*
X0100342Y0296108D02*
X0119400Y0296108D01*
X0119400Y0294510D02*
X0098743Y0294510D01*
X0119400Y0304101D02*
X0006600Y0304101D01*
X0006600Y0305699D02*
X0119400Y0305699D01*
X0119400Y0307298D02*
X0006600Y0307298D01*
X0006600Y0308896D02*
X0119400Y0308896D01*
X0123600Y0308896D02*
X0192231Y0308896D01*
X0192231Y0307298D02*
X0123600Y0307298D01*
X0123600Y0305699D02*
X0192407Y0305699D01*
X0192231Y0305875D02*
X0193169Y0304938D01*
X0200431Y0304938D01*
X0201368Y0305875D01*
X0201368Y0313138D01*
X0200431Y0314075D01*
X0193169Y0314075D01*
X0192231Y0313138D01*
X0192231Y0305875D01*
X0192231Y0310495D02*
X0123600Y0310495D01*
X0123600Y0312093D02*
X0192231Y0312093D01*
X0192786Y0313692D02*
X0123600Y0313692D01*
X0123600Y0315290D02*
X0397000Y0315290D01*
X0397000Y0313692D02*
X0338633Y0313692D01*
X0339388Y0313379D02*
X0337709Y0314075D01*
X0335891Y0314075D01*
X0334212Y0313379D01*
X0332927Y0312094D01*
X0332231Y0310415D01*
X0332231Y0308598D01*
X0332927Y0306918D01*
X0334212Y0305633D01*
X0335891Y0304938D01*
X0337709Y0304938D01*
X0339388Y0305633D01*
X0340673Y0306918D01*
X0341368Y0308598D01*
X0341368Y0310415D01*
X0340673Y0312094D01*
X0339388Y0313379D01*
X0340673Y0312093D02*
X0397000Y0312093D01*
X0397000Y0310495D02*
X0341335Y0310495D01*
X0341368Y0308896D02*
X0397000Y0308896D01*
X0397000Y0307298D02*
X0340830Y0307298D01*
X0339454Y0305699D02*
X0397000Y0305699D01*
X0397000Y0304101D02*
X0123600Y0304101D01*
X0123600Y0302502D02*
X0134856Y0302502D01*
X0135060Y0302706D02*
X0132600Y0300246D01*
X0132600Y0296767D01*
X0135060Y0294306D01*
X0138540Y0294306D01*
X0141000Y0296767D01*
X0141000Y0300246D01*
X0138540Y0302706D01*
X0135060Y0302706D01*
X0133258Y0300904D02*
X0123600Y0300904D01*
X0123600Y0299305D02*
X0132600Y0299305D01*
X0132600Y0297707D02*
X0123600Y0297707D01*
X0123600Y0296108D02*
X0133258Y0296108D01*
X0134857Y0294510D02*
X0123600Y0294510D01*
X0123600Y0292911D02*
X0164487Y0292911D01*
X0162889Y0291313D02*
X0123600Y0291313D01*
X0123600Y0289714D02*
X0162050Y0289714D01*
X0162050Y0288116D02*
X0123600Y0288116D01*
X0123600Y0286517D02*
X0162072Y0286517D01*
X0163670Y0284919D02*
X0123600Y0284919D01*
X0126000Y0276926D02*
X0163502Y0276926D01*
X0162050Y0275328D02*
X0124561Y0275328D01*
X0110745Y0260941D02*
X0006600Y0260941D01*
X0006600Y0259343D02*
X0064545Y0259343D01*
X0063900Y0257744D02*
X0006600Y0257744D01*
X0006600Y0256146D02*
X0018500Y0256146D01*
X0017600Y0255246D02*
X0017600Y0251767D01*
X0020060Y0249306D01*
X0023540Y0249306D01*
X0026000Y0251767D01*
X0026000Y0255246D01*
X0023540Y0257706D01*
X0020060Y0257706D01*
X0017600Y0255246D01*
X0017600Y0254547D02*
X0006600Y0254547D01*
X0006600Y0252948D02*
X0017600Y0252948D01*
X0018017Y0251350D02*
X0006600Y0251350D01*
X0006600Y0249751D02*
X0019615Y0249751D01*
X0023985Y0249751D02*
X0059615Y0249751D01*
X0058017Y0251350D02*
X0025583Y0251350D01*
X0026000Y0252948D02*
X0057600Y0252948D01*
X0057600Y0254547D02*
X0026000Y0254547D01*
X0025100Y0256146D02*
X0058500Y0256146D01*
X0063985Y0249751D02*
X0065400Y0249751D01*
X0065400Y0248153D02*
X0006600Y0248153D01*
X0006600Y0246554D02*
X0065400Y0246554D01*
X0065400Y0244956D02*
X0006600Y0244956D01*
X0006600Y0243357D02*
X0065400Y0243357D01*
X0065400Y0241759D02*
X0006600Y0241759D01*
X0006600Y0240160D02*
X0065400Y0240160D01*
X0065400Y0238562D02*
X0006600Y0238562D01*
X0006600Y0236963D02*
X0065400Y0236963D01*
X0065400Y0235365D02*
X0006600Y0235365D01*
X0006600Y0233766D02*
X0065400Y0233766D01*
X0065400Y0232168D02*
X0006600Y0232168D01*
X0006600Y0230569D02*
X0065400Y0230569D01*
X0065400Y0228971D02*
X0006600Y0228971D01*
X0008874Y0227372D02*
X0044726Y0227372D01*
X0045060Y0227706D02*
X0042600Y0225246D01*
X0042600Y0221767D01*
X0045060Y0219306D01*
X0048540Y0219306D01*
X0051000Y0221767D01*
X0051000Y0225246D01*
X0048540Y0227706D01*
X0045060Y0227706D01*
X0043128Y0225774D02*
X0010472Y0225774D01*
X0010212Y0220978D02*
X0027858Y0220978D01*
X0029457Y0219380D02*
X0008613Y0219380D01*
X0006600Y0217781D02*
X0031055Y0217781D01*
X0032654Y0216183D02*
X0006600Y0216183D01*
X0006600Y0214584D02*
X0034252Y0214584D01*
X0035851Y0212986D02*
X0006600Y0212986D01*
X0006600Y0211387D02*
X0018741Y0211387D01*
X0017600Y0210246D02*
X0017600Y0206767D01*
X0020060Y0204306D01*
X0023540Y0204306D01*
X0026000Y0206767D01*
X0026000Y0210246D01*
X0023540Y0212706D01*
X0020060Y0212706D01*
X0017600Y0210246D01*
X0017600Y0209789D02*
X0006600Y0209789D01*
X0006600Y0208190D02*
X0017600Y0208190D01*
X0017775Y0206592D02*
X0006600Y0206592D01*
X0006600Y0204993D02*
X0019373Y0204993D01*
X0024227Y0204993D02*
X0043843Y0204993D01*
X0042245Y0206592D02*
X0025825Y0206592D01*
X0026000Y0208190D02*
X0040646Y0208190D01*
X0039048Y0209789D02*
X0026000Y0209789D01*
X0024859Y0211387D02*
X0037449Y0211387D01*
X0040192Y0214584D02*
X0049338Y0214584D01*
X0048032Y0212986D02*
X0041790Y0212986D01*
X0043389Y0211387D02*
X0047600Y0211387D01*
X0047600Y0209789D02*
X0044987Y0209789D01*
X0046586Y0208190D02*
X0047600Y0208190D01*
X0045442Y0203395D02*
X0006600Y0203395D01*
X0006600Y0201796D02*
X0047040Y0201796D01*
X0048639Y0200198D02*
X0006600Y0200198D01*
X0006600Y0198599D02*
X0050237Y0198599D01*
X0051836Y0197001D02*
X0006600Y0197001D01*
X0006600Y0195402D02*
X0053434Y0195402D01*
X0055033Y0193804D02*
X0006600Y0193804D01*
X0006600Y0192205D02*
X0056631Y0192205D01*
X0058230Y0190607D02*
X0006600Y0190607D01*
X0006600Y0189008D02*
X0059828Y0189008D01*
X0061427Y0187410D02*
X0006600Y0187410D01*
X0006600Y0185811D02*
X0063025Y0185811D01*
X0058967Y0184213D02*
X0054633Y0184213D01*
X0055722Y0182614D02*
X0057878Y0182614D01*
X0057600Y0181015D02*
X0056000Y0181015D01*
X0056000Y0179417D02*
X0057600Y0179417D01*
X0057600Y0177818D02*
X0057158Y0177818D01*
X0056014Y0173023D02*
X0054856Y0173023D01*
X0048744Y0173023D02*
X0006600Y0173023D01*
X0006600Y0174621D02*
X0047786Y0174621D01*
X0047600Y0176220D02*
X0006600Y0176220D01*
X0006600Y0177818D02*
X0047600Y0177818D01*
X0047600Y0179417D02*
X0006600Y0179417D01*
X0006600Y0181015D02*
X0047600Y0181015D01*
X0047878Y0182614D02*
X0006600Y0182614D01*
X0006600Y0184213D02*
X0048967Y0184213D01*
X0059374Y0195402D02*
X0080884Y0195402D01*
X0079286Y0197001D02*
X0057776Y0197001D01*
X0056177Y0198599D02*
X0077687Y0198599D01*
X0076089Y0200198D02*
X0054579Y0200198D01*
X0052980Y0201796D02*
X0060748Y0201796D01*
X0060965Y0201706D02*
X0062635Y0201706D01*
X0064179Y0202346D01*
X0065361Y0203527D01*
X0066000Y0205071D01*
X0066000Y0211942D01*
X0065361Y0213485D01*
X0064179Y0214667D01*
X0062635Y0215306D01*
X0060965Y0215306D01*
X0059421Y0214667D01*
X0058239Y0213485D01*
X0057600Y0211942D01*
X0057600Y0205071D01*
X0058239Y0203527D01*
X0059421Y0202346D01*
X0060965Y0201706D01*
X0062852Y0201796D02*
X0070748Y0201796D01*
X0072852Y0201796D02*
X0074490Y0201796D01*
X0068372Y0203395D02*
X0065228Y0203395D01*
X0065968Y0204993D02*
X0067632Y0204993D01*
X0067600Y0206592D02*
X0066000Y0206592D01*
X0066000Y0208190D02*
X0067600Y0208190D01*
X0067600Y0209789D02*
X0066000Y0209789D01*
X0066000Y0211387D02*
X0067600Y0211387D01*
X0068032Y0212986D02*
X0065568Y0212986D01*
X0064262Y0214584D02*
X0069338Y0214584D01*
X0070904Y0216183D02*
X0038593Y0216183D01*
X0036995Y0217781D02*
X0069305Y0217781D01*
X0067707Y0219380D02*
X0058613Y0219380D01*
X0058540Y0219306D02*
X0061000Y0221767D01*
X0061000Y0225246D01*
X0058540Y0227706D01*
X0055060Y0227706D01*
X0052600Y0225246D01*
X0052600Y0221767D01*
X0055060Y0219306D01*
X0058540Y0219306D01*
X0060212Y0220978D02*
X0066108Y0220978D01*
X0065400Y0222577D02*
X0061000Y0222577D01*
X0061000Y0224175D02*
X0065400Y0224175D01*
X0065400Y0225774D02*
X0060472Y0225774D01*
X0058874Y0227372D02*
X0065400Y0227372D01*
X0069600Y0227372D02*
X0094726Y0227372D01*
X0095060Y0227706D02*
X0092600Y0225246D01*
X0092600Y0221767D01*
X0095060Y0219306D01*
X0098540Y0219306D01*
X0101000Y0221767D01*
X0101000Y0225246D01*
X0098540Y0227706D01*
X0095060Y0227706D01*
X0093128Y0225774D02*
X0069600Y0225774D01*
X0069600Y0224175D02*
X0092600Y0224175D01*
X0092600Y0222577D02*
X0070449Y0222577D01*
X0072048Y0220978D02*
X0093388Y0220978D01*
X0094987Y0219380D02*
X0073646Y0219380D01*
X0075245Y0217781D02*
X0126355Y0217781D01*
X0124757Y0216183D02*
X0076843Y0216183D01*
X0078442Y0214584D02*
X0079338Y0214584D01*
X0084262Y0214584D02*
X0089338Y0214584D01*
X0088032Y0212986D02*
X0085568Y0212986D01*
X0086000Y0211387D02*
X0087600Y0211387D01*
X0087600Y0209789D02*
X0086000Y0209789D01*
X0086000Y0208190D02*
X0087600Y0208190D01*
X0087600Y0206592D02*
X0086434Y0206592D01*
X0088050Y0203395D02*
X0088372Y0203395D01*
X0088050Y0201796D02*
X0090748Y0201796D01*
X0092852Y0201796D02*
X0100748Y0201796D01*
X0100965Y0201706D02*
X0102635Y0201706D01*
X0104179Y0202346D01*
X0105361Y0203527D01*
X0106000Y0205071D01*
X0106000Y0211942D01*
X0105361Y0213485D01*
X0104179Y0214667D01*
X0102635Y0215306D01*
X0100965Y0215306D01*
X0099421Y0214667D01*
X0098239Y0213485D01*
X0097600Y0211942D01*
X0097600Y0205071D01*
X0098239Y0203527D01*
X0099421Y0202346D01*
X0100965Y0201706D01*
X0102852Y0201796D02*
X0110370Y0201796D01*
X0108771Y0200198D02*
X0089042Y0200198D01*
X0089550Y0198599D02*
X0107173Y0198599D01*
X0105574Y0197001D02*
X0089326Y0197001D01*
X0095228Y0203395D02*
X0098372Y0203395D01*
X0097632Y0204993D02*
X0095968Y0204993D01*
X0096000Y0206592D02*
X0097600Y0206592D01*
X0097600Y0208190D02*
X0096000Y0208190D01*
X0096000Y0209789D02*
X0097600Y0209789D01*
X0097600Y0211387D02*
X0096000Y0211387D01*
X0095568Y0212986D02*
X0098032Y0212986D01*
X0099338Y0214584D02*
X0094262Y0214584D01*
X0098613Y0219380D02*
X0104987Y0219380D01*
X0105060Y0219306D02*
X0108540Y0219306D01*
X0111000Y0221767D01*
X0111000Y0225246D01*
X0108540Y0227706D01*
X0105060Y0227706D01*
X0102600Y0225246D01*
X0102600Y0221767D01*
X0105060Y0219306D01*
X0103388Y0220978D02*
X0100212Y0220978D01*
X0101000Y0222577D02*
X0102600Y0222577D01*
X0102600Y0224175D02*
X0101000Y0224175D01*
X0100472Y0225774D02*
X0103128Y0225774D01*
X0104726Y0227372D02*
X0098874Y0227372D01*
X0108874Y0227372D02*
X0144726Y0227372D01*
X0143128Y0225774D02*
X0110472Y0225774D01*
X0111000Y0224175D02*
X0132749Y0224175D01*
X0131151Y0222577D02*
X0111000Y0222577D01*
X0110212Y0220978D02*
X0129552Y0220978D01*
X0127954Y0219380D02*
X0108613Y0219380D01*
X0109338Y0214584D02*
X0104262Y0214584D01*
X0105568Y0212986D02*
X0108032Y0212986D01*
X0107600Y0211387D02*
X0106000Y0211387D01*
X0106000Y0209789D02*
X0107600Y0209789D01*
X0107600Y0208190D02*
X0106000Y0208190D01*
X0106000Y0206592D02*
X0107600Y0206592D01*
X0107632Y0204993D02*
X0105968Y0204993D01*
X0105228Y0203395D02*
X0108372Y0203395D01*
X0113113Y0198599D02*
X0169487Y0198599D01*
X0167889Y0200198D02*
X0164431Y0200198D01*
X0166000Y0201796D02*
X0166290Y0201796D01*
X0171086Y0197001D02*
X0111514Y0197001D01*
X0109916Y0195402D02*
X0172684Y0195402D01*
X0174283Y0193804D02*
X0108317Y0193804D01*
X0114711Y0200198D02*
X0159169Y0200198D01*
X0164324Y0192205D02*
X0175881Y0192205D01*
X0177480Y0190607D02*
X0165922Y0190607D01*
X0166200Y0189008D02*
X0179078Y0189008D01*
X0180677Y0187410D02*
X0166200Y0187410D01*
X0165327Y0185811D02*
X0182275Y0185811D01*
X0183874Y0184213D02*
X0163729Y0184213D01*
X0144987Y0219380D02*
X0133893Y0219380D01*
X0135492Y0220978D02*
X0143388Y0220978D01*
X0123158Y0214584D02*
X0114262Y0214584D01*
X0115568Y0212986D02*
X0121560Y0212986D01*
X0119961Y0211387D02*
X0116000Y0211387D01*
X0116000Y0209789D02*
X0118363Y0209789D01*
X0116764Y0208190D02*
X0116000Y0208190D01*
X0082483Y0193804D02*
X0060973Y0193804D01*
X0058372Y0203395D02*
X0055228Y0203395D01*
X0055968Y0204993D02*
X0057632Y0204993D01*
X0057600Y0206592D02*
X0056000Y0206592D01*
X0056000Y0208190D02*
X0057600Y0208190D01*
X0057600Y0209789D02*
X0056000Y0209789D01*
X0056000Y0211387D02*
X0057600Y0211387D01*
X0058032Y0212986D02*
X0055568Y0212986D01*
X0054262Y0214584D02*
X0059338Y0214584D01*
X0054987Y0219380D02*
X0048613Y0219380D01*
X0050212Y0220978D02*
X0053388Y0220978D01*
X0052600Y0222577D02*
X0051000Y0222577D01*
X0051000Y0224175D02*
X0052600Y0224175D01*
X0053128Y0225774D02*
X0050472Y0225774D01*
X0048874Y0227372D02*
X0054726Y0227372D01*
X0042600Y0224175D02*
X0030601Y0224175D01*
X0032199Y0222577D02*
X0042600Y0222577D01*
X0043388Y0220978D02*
X0033798Y0220978D01*
X0035396Y0219380D02*
X0044987Y0219380D01*
X0069600Y0252948D02*
X0072600Y0252948D01*
X0072600Y0254547D02*
X0069932Y0254547D01*
X0070957Y0256146D02*
X0073500Y0256146D01*
X0071100Y0257744D02*
X0113942Y0257744D01*
X0113500Y0256146D02*
X0080100Y0256146D01*
X0081000Y0254547D02*
X0112600Y0254547D01*
X0112600Y0252948D02*
X0081000Y0252948D01*
X0070455Y0259343D02*
X0112344Y0259343D01*
X0109147Y0262540D02*
X0006600Y0262540D01*
X0006600Y0264138D02*
X0107548Y0264138D01*
X0105950Y0265737D02*
X0006600Y0265737D01*
X0006600Y0267335D02*
X0104351Y0267335D01*
X0102753Y0268934D02*
X0006600Y0268934D01*
X0006600Y0320086D02*
X0119400Y0320086D01*
X0119400Y0321684D02*
X0006600Y0321684D01*
X0006600Y0323283D02*
X0119400Y0323283D01*
X0119400Y0324882D02*
X0006600Y0324882D01*
X0006600Y0326480D02*
X0108314Y0326480D01*
X0107160Y0328079D02*
X0006600Y0328079D01*
X0006600Y0329677D02*
X0106720Y0329677D01*
X0106700Y0331276D02*
X0006600Y0331276D01*
X0006600Y0332874D02*
X0106700Y0332874D01*
X0106700Y0334473D02*
X0006600Y0334473D01*
X0006600Y0336071D02*
X0106700Y0336071D01*
X0106773Y0337670D02*
X0006600Y0337670D01*
X0006600Y0339268D02*
X0045928Y0339268D01*
X0045724Y0339352D02*
X0047525Y0338606D01*
X0056075Y0338606D01*
X0057876Y0339352D01*
X0059254Y0340731D01*
X0060000Y0342532D01*
X0060000Y0344481D01*
X0059254Y0346282D01*
X0057876Y0347660D01*
X0056075Y0348406D01*
X0047525Y0348406D01*
X0045724Y0347660D01*
X0044346Y0346282D01*
X0043600Y0344481D01*
X0043600Y0342532D01*
X0044346Y0340731D01*
X0045724Y0339352D01*
X0044290Y0340867D02*
X0006600Y0340867D01*
X0006600Y0342465D02*
X0043628Y0342465D01*
X0043600Y0344064D02*
X0006600Y0344064D01*
X0006600Y0345662D02*
X0044089Y0345662D01*
X0045325Y0347261D02*
X0006600Y0347261D01*
X0006600Y0348859D02*
X0083577Y0348859D01*
X0081979Y0350458D02*
X0006600Y0350458D01*
X0006600Y0352056D02*
X0080380Y0352056D01*
X0078782Y0353655D02*
X0006600Y0353655D01*
X0006600Y0355253D02*
X0077183Y0355253D01*
X0075585Y0356852D02*
X0006600Y0356852D01*
X0006600Y0358450D02*
X0012019Y0358450D01*
X0009561Y0360049D02*
X0006600Y0360049D01*
X0006600Y0361647D02*
X0007962Y0361647D01*
X0007021Y0363246D02*
X0006600Y0363246D01*
X0021581Y0358450D02*
X0073986Y0358450D01*
X0072388Y0360049D02*
X0024039Y0360049D01*
X0025638Y0361647D02*
X0070789Y0361647D01*
X0069191Y0363246D02*
X0026579Y0363246D01*
X0027309Y0364844D02*
X0049522Y0364844D01*
X0047924Y0366443D02*
X0027738Y0366443D01*
X0027899Y0368041D02*
X0047600Y0368041D01*
X0047600Y0369640D02*
X0027899Y0369640D01*
X0027559Y0371238D02*
X0048592Y0371238D01*
X0055008Y0371238D02*
X0085412Y0371238D01*
X0083814Y0369640D02*
X0068736Y0369640D01*
X0070335Y0368041D02*
X0082215Y0368041D01*
X0080617Y0366443D02*
X0071933Y0366443D01*
X0073532Y0364844D02*
X0079018Y0364844D01*
X0077420Y0363246D02*
X0075130Y0363246D01*
X0080162Y0360049D02*
X0092188Y0360049D01*
X0093786Y0358450D02*
X0079926Y0358450D01*
X0081524Y0356852D02*
X0095385Y0356852D01*
X0096983Y0355253D02*
X0083123Y0355253D01*
X0084721Y0353655D02*
X0098582Y0353655D01*
X0100180Y0352056D02*
X0086320Y0352056D01*
X0087918Y0350458D02*
X0101779Y0350458D01*
X0103377Y0348859D02*
X0089517Y0348859D01*
X0085176Y0347261D02*
X0058275Y0347261D01*
X0059511Y0345662D02*
X0084089Y0345662D01*
X0083600Y0344064D02*
X0060000Y0344064D01*
X0059972Y0342465D02*
X0083628Y0342465D01*
X0084290Y0340867D02*
X0059310Y0340867D01*
X0057672Y0339268D02*
X0085928Y0339268D01*
X0097672Y0339268D02*
X0107330Y0339268D01*
X0108712Y0340867D02*
X0099310Y0340867D01*
X0099972Y0342465D02*
X0109771Y0342465D01*
X0108173Y0344064D02*
X0100000Y0344064D01*
X0099511Y0345662D02*
X0106574Y0345662D01*
X0104976Y0347261D02*
X0098275Y0347261D01*
X0104521Y0353655D02*
X0397000Y0353655D01*
X0397000Y0355253D02*
X0102923Y0355253D01*
X0101324Y0356852D02*
X0397000Y0356852D01*
X0397000Y0358450D02*
X0391581Y0358450D01*
X0394039Y0360049D02*
X0397000Y0360049D01*
X0397000Y0361647D02*
X0395638Y0361647D01*
X0396579Y0363246D02*
X0397000Y0363246D01*
X0397000Y0352056D02*
X0106120Y0352056D01*
X0107718Y0350458D02*
X0397000Y0350458D01*
X0397000Y0348859D02*
X0109317Y0348859D01*
X0110915Y0347261D02*
X0397000Y0347261D01*
X0397000Y0345662D02*
X0112514Y0345662D01*
X0114112Y0344064D02*
X0397000Y0344064D01*
X0397000Y0342465D02*
X0115711Y0342465D01*
X0117310Y0340867D02*
X0397000Y0340867D01*
X0397000Y0339268D02*
X0118908Y0339268D01*
X0120507Y0337670D02*
X0397000Y0337670D01*
X0397000Y0336071D02*
X0122105Y0336071D01*
X0123600Y0334473D02*
X0397000Y0334473D01*
X0397000Y0332874D02*
X0123600Y0332874D01*
X0123600Y0331276D02*
X0397000Y0331276D01*
X0397000Y0329677D02*
X0123600Y0329677D01*
X0123600Y0328079D02*
X0397000Y0328079D01*
X0397000Y0326480D02*
X0123600Y0326480D01*
X0123600Y0324882D02*
X0397000Y0324882D01*
X0397000Y0323283D02*
X0123600Y0323283D01*
X0123600Y0321684D02*
X0397000Y0321684D01*
X0397000Y0320086D02*
X0123600Y0320086D01*
X0123600Y0318487D02*
X0397000Y0318487D01*
X0397000Y0316889D02*
X0123600Y0316889D01*
X0119400Y0326480D02*
X0115286Y0326480D01*
X0116440Y0328079D02*
X0119400Y0328079D01*
X0119400Y0329677D02*
X0116880Y0329677D01*
X0116900Y0331276D02*
X0119400Y0331276D01*
X0119362Y0332874D02*
X0116900Y0332874D01*
X0116900Y0334473D02*
X0117764Y0334473D01*
X0112100Y0332874D02*
X0111500Y0332874D01*
X0111500Y0331276D02*
X0112100Y0331276D01*
X0112100Y0329677D02*
X0111500Y0329677D01*
X0111500Y0328079D02*
X0112100Y0328079D01*
X0112100Y0326480D02*
X0111500Y0326480D01*
X0138744Y0302502D02*
X0397000Y0302502D01*
X0397000Y0300904D02*
X0140342Y0300904D01*
X0141000Y0299305D02*
X0397000Y0299305D01*
X0397000Y0297707D02*
X0141000Y0297707D01*
X0140342Y0296108D02*
X0397000Y0296108D01*
X0397000Y0294510D02*
X0138743Y0294510D01*
X0170098Y0276926D02*
X0183502Y0276926D01*
X0182050Y0275328D02*
X0171550Y0275328D01*
X0171550Y0273729D02*
X0182050Y0273729D01*
X0182050Y0272131D02*
X0171550Y0272131D01*
X0170543Y0270532D02*
X0183057Y0270532D01*
X0216800Y0280123D02*
X0216800Y0280123D01*
X0216800Y0281722D02*
X0216800Y0281722D01*
X0216800Y0283320D02*
X0216800Y0283320D01*
X0215891Y0304938D02*
X0214212Y0305633D01*
X0212927Y0306918D01*
X0212231Y0308598D01*
X0212231Y0310415D01*
X0212927Y0312094D01*
X0214212Y0313379D01*
X0215891Y0314075D01*
X0217709Y0314075D01*
X0219388Y0313379D01*
X0220673Y0312094D01*
X0221368Y0310415D01*
X0221368Y0308598D01*
X0220673Y0306918D01*
X0219388Y0305633D01*
X0217709Y0304938D01*
X0215891Y0304938D01*
X0214146Y0305699D02*
X0209454Y0305699D01*
X0209388Y0305633D02*
X0210673Y0306918D01*
X0211368Y0308598D01*
X0211368Y0310415D01*
X0210673Y0312094D01*
X0209388Y0313379D01*
X0207709Y0314075D01*
X0205891Y0314075D01*
X0204212Y0313379D01*
X0202927Y0312094D01*
X0202231Y0310415D01*
X0202231Y0308598D01*
X0202927Y0306918D01*
X0204212Y0305633D01*
X0205891Y0304938D01*
X0207709Y0304938D01*
X0209388Y0305633D01*
X0210830Y0307298D02*
X0212770Y0307298D01*
X0212231Y0308896D02*
X0211368Y0308896D01*
X0211335Y0310495D02*
X0212265Y0310495D01*
X0212927Y0312093D02*
X0210673Y0312093D01*
X0208633Y0313692D02*
X0214967Y0313692D01*
X0218633Y0313692D02*
X0224511Y0313692D01*
X0224301Y0313585D02*
X0223694Y0313144D01*
X0223163Y0312613D01*
X0222722Y0312006D01*
X0222381Y0311337D01*
X0222149Y0310623D01*
X0222031Y0309882D01*
X0222031Y0309691D01*
X0226616Y0309691D01*
X0226616Y0314275D01*
X0226425Y0314275D01*
X0225683Y0314157D01*
X0224970Y0313925D01*
X0224301Y0313585D01*
X0222785Y0312093D02*
X0220673Y0312093D01*
X0221335Y0310495D02*
X0222129Y0310495D01*
X0222031Y0309322D02*
X0222031Y0309131D01*
X0222149Y0308390D01*
X0222381Y0307676D01*
X0222722Y0307007D01*
X0223163Y0306400D01*
X0223694Y0305869D01*
X0224301Y0305428D01*
X0224970Y0305087D01*
X0225683Y0304855D01*
X0226425Y0304738D01*
X0226616Y0304738D01*
X0226616Y0309322D01*
X0226984Y0309322D01*
X0226984Y0304738D01*
X0227175Y0304738D01*
X0227917Y0304855D01*
X0228630Y0305087D01*
X0229299Y0305428D01*
X0229906Y0305869D01*
X0230437Y0306400D01*
X0230878Y0307007D01*
X0231219Y0307676D01*
X0231451Y0308390D01*
X0231568Y0309131D01*
X0231568Y0309322D01*
X0226984Y0309322D01*
X0226984Y0309691D01*
X0226616Y0309691D01*
X0226616Y0309322D01*
X0222031Y0309322D01*
X0222069Y0308896D02*
X0221368Y0308896D01*
X0220830Y0307298D02*
X0222573Y0307298D01*
X0223927Y0305699D02*
X0219454Y0305699D01*
X0226616Y0305699D02*
X0226984Y0305699D01*
X0226984Y0307298D02*
X0226616Y0307298D01*
X0226616Y0308896D02*
X0226984Y0308896D01*
X0226984Y0309691D02*
X0231568Y0309691D01*
X0231568Y0309882D01*
X0231451Y0310623D01*
X0231219Y0311337D01*
X0230878Y0312006D01*
X0230437Y0312613D01*
X0229906Y0313144D01*
X0229299Y0313585D01*
X0228630Y0313925D01*
X0227917Y0314157D01*
X0227175Y0314275D01*
X0226984Y0314275D01*
X0226984Y0309691D01*
X0226984Y0310495D02*
X0226616Y0310495D01*
X0226616Y0312093D02*
X0226984Y0312093D01*
X0226984Y0313692D02*
X0226616Y0313692D01*
X0229089Y0313692D02*
X0234967Y0313692D01*
X0234212Y0313379D02*
X0232927Y0312094D01*
X0232231Y0310415D01*
X0232231Y0308598D01*
X0232927Y0306918D01*
X0234212Y0305633D01*
X0235891Y0304938D01*
X0237709Y0304938D01*
X0239388Y0305633D01*
X0240673Y0306918D01*
X0241368Y0308598D01*
X0241368Y0310415D01*
X0240673Y0312094D01*
X0239388Y0313379D01*
X0237709Y0314075D01*
X0235891Y0314075D01*
X0234212Y0313379D01*
X0232927Y0312093D02*
X0230815Y0312093D01*
X0231471Y0310495D02*
X0232265Y0310495D01*
X0232231Y0308896D02*
X0231531Y0308896D01*
X0231027Y0307298D02*
X0232770Y0307298D01*
X0234146Y0305699D02*
X0229673Y0305699D01*
X0239454Y0305699D02*
X0244146Y0305699D01*
X0244212Y0305633D02*
X0245891Y0304938D01*
X0247709Y0304938D01*
X0249388Y0305633D01*
X0250673Y0306918D01*
X0251368Y0308598D01*
X0251368Y0310415D01*
X0250673Y0312094D01*
X0249388Y0313379D01*
X0247709Y0314075D01*
X0245891Y0314075D01*
X0244212Y0313379D01*
X0242927Y0312094D01*
X0242231Y0310415D01*
X0242231Y0308598D01*
X0242927Y0306918D01*
X0244212Y0305633D01*
X0242770Y0307298D02*
X0240830Y0307298D01*
X0241368Y0308896D02*
X0242231Y0308896D01*
X0242265Y0310495D02*
X0241335Y0310495D01*
X0240673Y0312093D02*
X0242927Y0312093D01*
X0244967Y0313692D02*
X0238633Y0313692D01*
X0248633Y0313692D02*
X0254967Y0313692D01*
X0254212Y0313379D02*
X0252927Y0312094D01*
X0252231Y0310415D01*
X0252231Y0308598D01*
X0252927Y0306918D01*
X0254212Y0305633D01*
X0255891Y0304938D01*
X0257709Y0304938D01*
X0259388Y0305633D01*
X0260673Y0306918D01*
X0261368Y0308598D01*
X0261368Y0310415D01*
X0260673Y0312094D01*
X0259388Y0313379D01*
X0257709Y0314075D01*
X0255891Y0314075D01*
X0254212Y0313379D01*
X0252927Y0312093D02*
X0250673Y0312093D01*
X0251335Y0310495D02*
X0252265Y0310495D01*
X0252231Y0308896D02*
X0251368Y0308896D01*
X0250830Y0307298D02*
X0252770Y0307298D01*
X0254146Y0305699D02*
X0249454Y0305699D01*
X0259454Y0305699D02*
X0264146Y0305699D01*
X0264212Y0305633D02*
X0265891Y0304938D01*
X0267709Y0304938D01*
X0269388Y0305633D01*
X0270673Y0306918D01*
X0271368Y0308598D01*
X0271368Y0310415D01*
X0270673Y0312094D01*
X0269388Y0313379D01*
X0267709Y0314075D01*
X0265891Y0314075D01*
X0264212Y0313379D01*
X0262927Y0312094D01*
X0262231Y0310415D01*
X0262231Y0308598D01*
X0262927Y0306918D01*
X0264212Y0305633D01*
X0262770Y0307298D02*
X0260830Y0307298D01*
X0261368Y0308896D02*
X0262231Y0308896D01*
X0262265Y0310495D02*
X0261335Y0310495D01*
X0260673Y0312093D02*
X0262927Y0312093D01*
X0264967Y0313692D02*
X0258633Y0313692D01*
X0268633Y0313692D02*
X0274967Y0313692D01*
X0274212Y0313379D02*
X0272927Y0312094D01*
X0272231Y0310415D01*
X0272231Y0308598D01*
X0272927Y0306918D01*
X0274212Y0305633D01*
X0275891Y0304938D01*
X0277709Y0304938D01*
X0279388Y0305633D01*
X0280673Y0306918D01*
X0281368Y0308598D01*
X0281368Y0310415D01*
X0280673Y0312094D01*
X0279388Y0313379D01*
X0277709Y0314075D01*
X0275891Y0314075D01*
X0274212Y0313379D01*
X0272927Y0312093D02*
X0270673Y0312093D01*
X0271335Y0310495D02*
X0272265Y0310495D01*
X0272231Y0308896D02*
X0271368Y0308896D01*
X0270830Y0307298D02*
X0272770Y0307298D01*
X0274146Y0305699D02*
X0269454Y0305699D01*
X0279454Y0305699D02*
X0284146Y0305699D01*
X0284212Y0305633D02*
X0285891Y0304938D01*
X0287709Y0304938D01*
X0289388Y0305633D01*
X0290673Y0306918D01*
X0291368Y0308598D01*
X0291368Y0310415D01*
X0290673Y0312094D01*
X0289388Y0313379D01*
X0287709Y0314075D01*
X0285891Y0314075D01*
X0284212Y0313379D01*
X0282927Y0312094D01*
X0282231Y0310415D01*
X0282231Y0308598D01*
X0282927Y0306918D01*
X0284212Y0305633D01*
X0282770Y0307298D02*
X0280830Y0307298D01*
X0281368Y0308896D02*
X0282231Y0308896D01*
X0282265Y0310495D02*
X0281335Y0310495D01*
X0280673Y0312093D02*
X0282927Y0312093D01*
X0284967Y0313692D02*
X0278633Y0313692D01*
X0288633Y0313692D02*
X0294967Y0313692D01*
X0294212Y0313379D02*
X0295891Y0314075D01*
X0297709Y0314075D01*
X0299388Y0313379D01*
X0300673Y0312094D01*
X0301368Y0310415D01*
X0301368Y0308598D01*
X0300673Y0306918D01*
X0299388Y0305633D01*
X0297709Y0304938D01*
X0295891Y0304938D01*
X0294212Y0305633D01*
X0292927Y0306918D01*
X0292231Y0308598D01*
X0292231Y0310415D01*
X0292927Y0312094D01*
X0294212Y0313379D01*
X0292927Y0312093D02*
X0290673Y0312093D01*
X0291335Y0310495D02*
X0292265Y0310495D01*
X0292231Y0308896D02*
X0291368Y0308896D01*
X0290830Y0307298D02*
X0292770Y0307298D01*
X0294146Y0305699D02*
X0289454Y0305699D01*
X0299454Y0305699D02*
X0304146Y0305699D01*
X0304212Y0305633D02*
X0305891Y0304938D01*
X0307709Y0304938D01*
X0309388Y0305633D01*
X0310673Y0306918D01*
X0311368Y0308598D01*
X0311368Y0310415D01*
X0310673Y0312094D01*
X0309388Y0313379D01*
X0307709Y0314075D01*
X0305891Y0314075D01*
X0304212Y0313379D01*
X0302927Y0312094D01*
X0302231Y0310415D01*
X0302231Y0308598D01*
X0302927Y0306918D01*
X0304212Y0305633D01*
X0302770Y0307298D02*
X0300830Y0307298D01*
X0301368Y0308896D02*
X0302231Y0308896D01*
X0302265Y0310495D02*
X0301335Y0310495D01*
X0300673Y0312093D02*
X0302927Y0312093D01*
X0304967Y0313692D02*
X0298633Y0313692D01*
X0308633Y0313692D02*
X0314967Y0313692D01*
X0314212Y0313379D02*
X0312927Y0312094D01*
X0312231Y0310415D01*
X0312231Y0308598D01*
X0312927Y0306918D01*
X0314212Y0305633D01*
X0315891Y0304938D01*
X0317709Y0304938D01*
X0319388Y0305633D01*
X0320673Y0306918D01*
X0321368Y0308598D01*
X0321368Y0310415D01*
X0320673Y0312094D01*
X0319388Y0313379D01*
X0317709Y0314075D01*
X0315891Y0314075D01*
X0314212Y0313379D01*
X0312927Y0312093D02*
X0310673Y0312093D01*
X0311335Y0310495D02*
X0312265Y0310495D01*
X0312231Y0308896D02*
X0311368Y0308896D01*
X0310830Y0307298D02*
X0312770Y0307298D01*
X0314146Y0305699D02*
X0309454Y0305699D01*
X0318633Y0313692D02*
X0324967Y0313692D01*
X0324212Y0313379D02*
X0322927Y0312094D01*
X0322231Y0310415D01*
X0322231Y0308598D01*
X0322927Y0306918D01*
X0324212Y0305633D01*
X0325891Y0304938D01*
X0327709Y0304938D01*
X0329388Y0305633D01*
X0330673Y0306918D01*
X0331368Y0308598D01*
X0331368Y0310415D01*
X0330673Y0312094D01*
X0329388Y0313379D01*
X0327709Y0314075D01*
X0325891Y0314075D01*
X0324212Y0313379D01*
X0322927Y0312093D02*
X0320673Y0312093D01*
X0321335Y0310495D02*
X0322265Y0310495D01*
X0322231Y0308896D02*
X0321368Y0308896D01*
X0320830Y0307298D02*
X0322770Y0307298D01*
X0324146Y0305699D02*
X0319454Y0305699D01*
X0329454Y0305699D02*
X0334146Y0305699D01*
X0332770Y0307298D02*
X0330830Y0307298D01*
X0331368Y0308896D02*
X0332231Y0308896D01*
X0332265Y0310495D02*
X0331335Y0310495D01*
X0330673Y0312093D02*
X0332927Y0312093D01*
X0334967Y0313692D02*
X0328633Y0313692D01*
X0377962Y0361647D02*
X0096529Y0361647D01*
X0098127Y0360049D02*
X0379561Y0360049D01*
X0382019Y0358450D02*
X0099726Y0358450D01*
X0094930Y0363246D02*
X0377021Y0363246D01*
X0376290Y0364844D02*
X0207848Y0364844D01*
X0206984Y0364844D02*
X0206616Y0364844D01*
X0205752Y0364844D02*
X0094078Y0364844D01*
X0095676Y0366443D02*
X0108634Y0366443D01*
X0107393Y0368041D02*
X0096000Y0368041D01*
X0096000Y0369640D02*
X0106900Y0369640D01*
X0106900Y0376034D02*
X0024969Y0376034D01*
X0026193Y0374435D02*
X0088609Y0374435D01*
X0087011Y0372837D02*
X0027116Y0372837D01*
X0023192Y0377632D02*
X0106900Y0377632D01*
X0116700Y0377632D02*
X0380408Y0377632D01*
X0378631Y0376034D02*
X0229292Y0376034D01*
X0230891Y0374435D02*
X0377407Y0374435D01*
X0376484Y0372837D02*
X0339930Y0372837D01*
X0339388Y0373379D02*
X0337709Y0374075D01*
X0335891Y0374075D01*
X0334212Y0373379D01*
X0332927Y0372094D01*
X0332231Y0370415D01*
X0332231Y0368598D01*
X0332927Y0366918D01*
X0334212Y0365633D01*
X0335891Y0364938D01*
X0337709Y0364938D01*
X0339388Y0365633D01*
X0340673Y0366918D01*
X0341368Y0368598D01*
X0341368Y0370415D01*
X0340673Y0372094D01*
X0339388Y0373379D01*
X0341027Y0371238D02*
X0376041Y0371238D01*
X0375701Y0369640D02*
X0341368Y0369640D01*
X0341138Y0368041D02*
X0375701Y0368041D01*
X0375862Y0366443D02*
X0340197Y0366443D01*
X0333403Y0366443D02*
X0330197Y0366443D01*
X0330673Y0366918D02*
X0331368Y0368598D01*
X0331368Y0370415D01*
X0330673Y0372094D01*
X0329388Y0373379D01*
X0327709Y0374075D01*
X0325891Y0374075D01*
X0324212Y0373379D01*
X0322927Y0372094D01*
X0322231Y0370415D01*
X0322231Y0368598D01*
X0322927Y0366918D01*
X0324212Y0365633D01*
X0325891Y0364938D01*
X0327709Y0364938D01*
X0329388Y0365633D01*
X0330673Y0366918D01*
X0331138Y0368041D02*
X0332462Y0368041D01*
X0332231Y0369640D02*
X0331368Y0369640D01*
X0331027Y0371238D02*
X0332573Y0371238D01*
X0333670Y0372837D02*
X0329930Y0372837D01*
X0323670Y0372837D02*
X0319930Y0372837D01*
X0319388Y0373379D02*
X0317709Y0374075D01*
X0315891Y0374075D01*
X0314212Y0373379D01*
X0312927Y0372094D01*
X0312231Y0370415D01*
X0312231Y0368598D01*
X0312927Y0366918D01*
X0314212Y0365633D01*
X0315891Y0364938D01*
X0317709Y0364938D01*
X0319388Y0365633D01*
X0320673Y0366918D01*
X0321368Y0368598D01*
X0321368Y0370415D01*
X0320673Y0372094D01*
X0319388Y0373379D01*
X0321027Y0371238D02*
X0322573Y0371238D01*
X0322231Y0369640D02*
X0321368Y0369640D01*
X0321138Y0368041D02*
X0322462Y0368041D01*
X0323403Y0366443D02*
X0320197Y0366443D01*
X0313403Y0366443D02*
X0310197Y0366443D01*
X0310673Y0366918D02*
X0311368Y0368598D01*
X0311368Y0370415D01*
X0310673Y0372094D01*
X0309388Y0373379D01*
X0307709Y0374075D01*
X0305891Y0374075D01*
X0304212Y0373379D01*
X0302927Y0372094D01*
X0302231Y0370415D01*
X0302231Y0368598D01*
X0302927Y0366918D01*
X0304212Y0365633D01*
X0305891Y0364938D01*
X0307709Y0364938D01*
X0309388Y0365633D01*
X0310673Y0366918D01*
X0311138Y0368041D02*
X0312462Y0368041D01*
X0312231Y0369640D02*
X0311368Y0369640D01*
X0311027Y0371238D02*
X0312573Y0371238D01*
X0313670Y0372837D02*
X0309930Y0372837D01*
X0303670Y0372837D02*
X0299930Y0372837D01*
X0299388Y0373379D02*
X0297709Y0374075D01*
X0295891Y0374075D01*
X0294212Y0373379D01*
X0292927Y0372094D01*
X0292231Y0370415D01*
X0292231Y0368598D01*
X0292927Y0366918D01*
X0294212Y0365633D01*
X0295891Y0364938D01*
X0297709Y0364938D01*
X0299388Y0365633D01*
X0300673Y0366918D01*
X0301368Y0368598D01*
X0301368Y0370415D01*
X0300673Y0372094D01*
X0299388Y0373379D01*
X0301027Y0371238D02*
X0302573Y0371238D01*
X0302231Y0369640D02*
X0301368Y0369640D01*
X0301138Y0368041D02*
X0302462Y0368041D01*
X0303403Y0366443D02*
X0300197Y0366443D01*
X0293403Y0366443D02*
X0290197Y0366443D01*
X0290673Y0366918D02*
X0289388Y0365633D01*
X0287709Y0364938D01*
X0285891Y0364938D01*
X0284212Y0365633D01*
X0282927Y0366918D01*
X0282231Y0368598D01*
X0282231Y0370415D01*
X0282927Y0372094D01*
X0284212Y0373379D01*
X0285891Y0374075D01*
X0287709Y0374075D01*
X0289388Y0373379D01*
X0290673Y0372094D01*
X0291368Y0370415D01*
X0291368Y0368598D01*
X0290673Y0366918D01*
X0291138Y0368041D02*
X0292462Y0368041D01*
X0292231Y0369640D02*
X0291368Y0369640D01*
X0291027Y0371238D02*
X0292573Y0371238D01*
X0293670Y0372837D02*
X0289930Y0372837D01*
X0283670Y0372837D02*
X0279930Y0372837D01*
X0279388Y0373379D02*
X0277709Y0374075D01*
X0275891Y0374075D01*
X0274212Y0373379D01*
X0272927Y0372094D01*
X0272231Y0370415D01*
X0272231Y0368598D01*
X0272927Y0366918D01*
X0274212Y0365633D01*
X0275891Y0364938D01*
X0277709Y0364938D01*
X0279388Y0365633D01*
X0280673Y0366918D01*
X0281368Y0368598D01*
X0281368Y0370415D01*
X0280673Y0372094D01*
X0279388Y0373379D01*
X0281027Y0371238D02*
X0282573Y0371238D01*
X0282231Y0369640D02*
X0281368Y0369640D01*
X0281138Y0368041D02*
X0282462Y0368041D01*
X0283403Y0366443D02*
X0280197Y0366443D01*
X0273403Y0366443D02*
X0270197Y0366443D01*
X0270673Y0366918D02*
X0271368Y0368598D01*
X0271368Y0370415D01*
X0270673Y0372094D01*
X0269388Y0373379D01*
X0267709Y0374075D01*
X0265891Y0374075D01*
X0264212Y0373379D01*
X0262927Y0372094D01*
X0262231Y0370415D01*
X0262231Y0368598D01*
X0262927Y0366918D01*
X0264212Y0365633D01*
X0265891Y0364938D01*
X0267709Y0364938D01*
X0269388Y0365633D01*
X0270673Y0366918D01*
X0271138Y0368041D02*
X0272462Y0368041D01*
X0272231Y0369640D02*
X0271368Y0369640D01*
X0271027Y0371238D02*
X0272573Y0371238D01*
X0273670Y0372837D02*
X0269930Y0372837D01*
X0263670Y0372837D02*
X0259930Y0372837D01*
X0259388Y0373379D02*
X0257709Y0374075D01*
X0255891Y0374075D01*
X0254212Y0373379D01*
X0252927Y0372094D01*
X0252231Y0370415D01*
X0252231Y0368598D01*
X0252927Y0366918D01*
X0254212Y0365633D01*
X0255891Y0364938D01*
X0257709Y0364938D01*
X0259388Y0365633D01*
X0260673Y0366918D01*
X0261368Y0368598D01*
X0261368Y0370415D01*
X0260673Y0372094D01*
X0259388Y0373379D01*
X0261027Y0371238D02*
X0262573Y0371238D01*
X0262231Y0369640D02*
X0261368Y0369640D01*
X0261138Y0368041D02*
X0262462Y0368041D01*
X0263403Y0366443D02*
X0260197Y0366443D01*
X0253403Y0366443D02*
X0250197Y0366443D01*
X0250673Y0366918D02*
X0251368Y0368598D01*
X0251368Y0370415D01*
X0250673Y0372094D01*
X0249388Y0373379D01*
X0247709Y0374075D01*
X0245891Y0374075D01*
X0244212Y0373379D01*
X0242927Y0372094D01*
X0242231Y0370415D01*
X0242231Y0368598D01*
X0242927Y0366918D01*
X0244212Y0365633D01*
X0245891Y0364938D01*
X0247709Y0364938D01*
X0249388Y0365633D01*
X0250673Y0366918D01*
X0251138Y0368041D02*
X0252462Y0368041D01*
X0252231Y0369640D02*
X0251368Y0369640D01*
X0251027Y0371238D02*
X0252573Y0371238D01*
X0253670Y0372837D02*
X0249930Y0372837D01*
X0243670Y0372837D02*
X0239930Y0372837D01*
X0241027Y0371238D02*
X0242573Y0371238D01*
X0242231Y0369640D02*
X0241368Y0369640D01*
X0241138Y0368041D02*
X0242462Y0368041D01*
X0243403Y0366443D02*
X0240197Y0366443D01*
X0233403Y0366443D02*
X0230197Y0366443D01*
X0231138Y0368041D02*
X0231345Y0368041D01*
X0232489Y0372837D02*
X0233670Y0372837D01*
X0222573Y0371238D02*
X0221027Y0371238D01*
X0221368Y0369640D02*
X0222231Y0369640D01*
X0222462Y0368041D02*
X0221138Y0368041D01*
X0220197Y0366443D02*
X0223403Y0366443D01*
X0213403Y0366443D02*
X0210468Y0366443D01*
X0211338Y0368041D02*
X0212462Y0368041D01*
X0212231Y0369640D02*
X0206984Y0369640D01*
X0206616Y0369640D02*
X0201368Y0369640D01*
X0201138Y0368041D02*
X0202262Y0368041D01*
X0203132Y0366443D02*
X0200197Y0366443D01*
X0201027Y0371238D02*
X0202349Y0371238D01*
X0206616Y0368041D02*
X0206984Y0368041D01*
X0206984Y0366443D02*
X0206616Y0366443D01*
X0211251Y0371238D02*
X0212573Y0371238D01*
X0193403Y0366443D02*
X0114966Y0366443D01*
X0116207Y0368041D02*
X0192462Y0368041D01*
X0192231Y0369640D02*
X0116700Y0369640D01*
X0116700Y0371238D02*
X0192573Y0371238D01*
X0200814Y0313692D02*
X0204967Y0313692D01*
X0202927Y0312093D02*
X0201368Y0312093D01*
X0201368Y0310495D02*
X0202265Y0310495D01*
X0202231Y0308896D02*
X0201368Y0308896D01*
X0201368Y0307298D02*
X0202770Y0307298D01*
X0204146Y0305699D02*
X0201193Y0305699D01*
X0090589Y0361647D02*
X0081761Y0361647D01*
X0083359Y0363246D02*
X0089700Y0363246D01*
X0089522Y0364844D02*
X0084958Y0364844D01*
X0086556Y0366443D02*
X0087924Y0366443D01*
X0067592Y0364844D02*
X0054078Y0364844D01*
X0048703Y0161833D02*
X0074897Y0161833D01*
X0073912Y0160235D02*
X0049688Y0160235D01*
X0050000Y0158636D02*
X0073600Y0158636D01*
X0073805Y0157038D02*
X0049795Y0157038D01*
X0044844Y0152242D02*
X0006600Y0152242D01*
X0006600Y0153841D02*
X0036959Y0153841D01*
X0034637Y0155439D02*
X0006600Y0155439D01*
X0006600Y0157038D02*
X0033805Y0157038D01*
X0033600Y0158636D02*
X0006600Y0158636D01*
X0006600Y0160235D02*
X0033912Y0160235D01*
X0034897Y0161833D02*
X0006600Y0161833D01*
X0006600Y0109082D02*
X0013387Y0109082D01*
X0010151Y0107484D02*
X0006600Y0107484D01*
X0006600Y0105885D02*
X0008483Y0105885D01*
X0007321Y0104287D02*
X0006600Y0104287D01*
D25*
X0261800Y0172798D02*
X0261900Y0172606D01*
X0275850Y0158656D01*
X0309150Y0158656D01*
X0349200Y0205456D02*
X0377550Y0177106D01*
M02*
