G75*
%MOIN*%
%OFA0B0*%
%FSLAX25Y25*%
%IPPOS*%
%LPD*%
%AMOC8*
5,1,8,0,0,1.08239X$1,22.5*
%
%ADD10C,0.13398*%
%ADD11C,0.11135*%
%ADD12R,0.11135X0.11135*%
%ADD13OC8,0.06400*%
%ADD14R,0.05131X0.06233*%
%ADD15R,0.04400X0.06500*%
%ADD16R,0.04776X0.04461*%
%ADD17R,0.05328X0.06509*%
%ADD18R,0.02926X0.03162*%
%ADD19R,0.06587X0.05367*%
%ADD20R,0.05328X0.06587*%
%ADD21R,0.05052X0.06391*%
%ADD22OC8,0.06000*%
%ADD23R,0.09265X0.16548*%
%ADD24R,0.14186X0.07887*%
%ADD25R,0.03005X0.03162*%
%ADD26R,0.12100X0.03800*%
%ADD27R,0.06509X0.11863*%
%ADD28OC8,0.06800*%
%ADD29C,0.07400*%
%ADD30R,0.05761X0.05406*%
%ADD31R,0.07808X0.13202*%
%ADD32C,0.06000*%
%ADD33R,0.06607X0.02572*%
%ADD34R,0.10288X0.13753*%
%ADD35R,0.15600X0.38200*%
%ADD36R,0.18517X0.07887*%
%ADD37R,0.02185X0.01969*%
%ADD38R,0.04724X0.04528*%
%ADD39R,0.03740X0.01969*%
%ADD40R,0.02808X0.03162*%
%ADD41R,0.04225X0.04658*%
%ADD42R,0.02296X0.02375*%
%ADD43R,0.05131X0.04737*%
%ADD44R,0.04737X0.05131*%
%ADD45R,0.08600X0.03000*%
%ADD46R,0.06737X0.06737*%
%ADD47C,0.06737*%
%ADD48R,0.06693X0.01575*%
%ADD49R,0.06981X0.08202*%
%ADD50C,0.06343*%
%ADD51C,0.08674*%
%ADD52OC8,0.07100*%
%ADD53C,0.04800*%
D10*
X0016800Y0098506D03*
X0016800Y0368506D03*
X0386800Y0368506D03*
X0386800Y0098506D03*
D11*
X0261800Y0172798D03*
X0197509Y0213506D03*
X0186800Y0112798D03*
D12*
X0168690Y0112798D03*
X0243690Y0172798D03*
X0197509Y0195396D03*
D13*
X0161800Y0188506D03*
X0131800Y0188506D03*
D14*
X0238402Y0273506D03*
X0245198Y0273506D03*
X0358402Y0148506D03*
X0365198Y0148506D03*
D15*
X0365000Y0128506D03*
X0358600Y0128506D03*
X0305000Y0208506D03*
X0298600Y0208506D03*
D16*
X0244591Y0213506D03*
X0239009Y0213506D03*
D17*
X0298257Y0103506D03*
X0305343Y0103506D03*
D18*
X0303501Y0088506D03*
X0300099Y0088506D03*
X0340099Y0153506D03*
X0343501Y0153506D03*
D19*
X0376800Y0136951D03*
X0376800Y0130061D03*
D20*
X0305265Y0118506D03*
X0298335Y0118506D03*
X0338335Y0253506D03*
X0345265Y0253506D03*
D21*
X0325324Y0188506D03*
X0318276Y0188506D03*
D22*
X0041800Y0093506D03*
X0081800Y0093506D03*
X0096800Y0093506D03*
X0096800Y0113506D03*
X0096800Y0133506D03*
X0081800Y0138506D03*
X0096800Y0153506D03*
X0136800Y0153506D03*
X0136800Y0133506D03*
X0136800Y0113506D03*
X0136800Y0093506D03*
X0041800Y0138506D03*
X0021800Y0168506D03*
X0021800Y0208506D03*
X0006800Y0223506D03*
X0021800Y0253506D03*
X0026800Y0278506D03*
X0046800Y0278506D03*
X0061800Y0298506D03*
X0076800Y0313506D03*
X0096800Y0313506D03*
X0096800Y0298506D03*
X0101800Y0278506D03*
X0121800Y0278506D03*
X0136800Y0298506D03*
X0131800Y0253506D03*
X0116800Y0253506D03*
X0106800Y0223506D03*
X0096800Y0223506D03*
X0076800Y0253506D03*
X0061800Y0253506D03*
X0056800Y0223506D03*
X0046800Y0223506D03*
X0021800Y0298506D03*
X0051800Y0368506D03*
X0091800Y0368506D03*
X0151800Y0253506D03*
X0161800Y0243506D03*
X0146800Y0223506D03*
X0161800Y0203506D03*
X0291800Y0138506D03*
X0331800Y0138506D03*
X0311800Y0178506D03*
X0301800Y0178506D03*
D23*
X0381800Y0200317D03*
X0381800Y0226695D03*
D24*
X0363611Y0173506D03*
X0339989Y0173506D03*
D25*
X0243513Y0288506D03*
X0240087Y0288506D03*
D26*
X0329000Y0278506D03*
X0344600Y0278506D03*
D27*
X0302430Y0283506D03*
X0291170Y0283506D03*
D28*
X0211300Y0153506D03*
X0152300Y0153506D03*
D29*
X0085100Y0158506D02*
X0078500Y0158506D01*
X0045100Y0158506D02*
X0038500Y0158506D01*
X0038500Y0113506D02*
X0045100Y0113506D01*
X0078500Y0113506D02*
X0085100Y0113506D01*
X0111800Y0330206D02*
X0111800Y0336806D01*
X0095100Y0343506D02*
X0088500Y0343506D01*
X0111800Y0370206D02*
X0111800Y0376806D01*
X0055100Y0343506D02*
X0048500Y0343506D01*
D30*
X0380796Y0183506D03*
X0392804Y0183506D03*
D31*
X0322095Y0158506D03*
X0301505Y0158506D03*
D32*
X0111800Y0175906D02*
X0111800Y0181106D01*
X0101800Y0181106D02*
X0101800Y0175906D01*
X0091800Y0175906D02*
X0091800Y0181106D01*
X0081800Y0181106D02*
X0081800Y0175906D01*
X0071800Y0175906D02*
X0071800Y0181106D01*
X0061800Y0181106D02*
X0061800Y0175906D01*
X0051800Y0175906D02*
X0051800Y0181106D01*
X0051800Y0205906D02*
X0051800Y0211106D01*
X0061800Y0211106D02*
X0061800Y0205906D01*
X0071800Y0205906D02*
X0071800Y0211106D01*
X0081800Y0211106D02*
X0081800Y0205906D01*
X0091800Y0205906D02*
X0091800Y0211106D01*
X0101800Y0211106D02*
X0101800Y0205906D01*
X0111800Y0205906D02*
X0111800Y0211106D01*
D33*
X0260233Y0229550D03*
X0260233Y0232109D03*
X0260233Y0234668D03*
X0260233Y0237227D03*
X0260233Y0239786D03*
X0260233Y0242345D03*
X0260233Y0244904D03*
X0260233Y0247463D03*
X0283367Y0247463D03*
X0283367Y0244904D03*
X0283367Y0242345D03*
X0283367Y0239786D03*
X0283367Y0237227D03*
X0283367Y0234668D03*
X0283367Y0232109D03*
X0283367Y0229550D03*
D34*
X0271800Y0238506D03*
D35*
X0324500Y0228506D03*
X0349100Y0228506D03*
D36*
X0261800Y0272010D03*
X0261800Y0285002D03*
D37*
X0378168Y0166065D03*
X0378168Y0163506D03*
X0378168Y0160947D03*
X0385432Y0160947D03*
X0385432Y0163506D03*
X0385432Y0166065D03*
D38*
X0381800Y0164786D03*
D39*
X0382178Y0160947D03*
D40*
X0378552Y0148506D03*
X0375048Y0148506D03*
X0390048Y0128506D03*
X0393552Y0128506D03*
X0318552Y0088506D03*
X0315048Y0088506D03*
X0325048Y0253506D03*
X0328552Y0253506D03*
X0318552Y0258506D03*
X0315048Y0258506D03*
D41*
X0388650Y0143506D03*
X0394950Y0143506D03*
D42*
X0302906Y0128506D03*
X0300694Y0128506D03*
D43*
X0359241Y0088506D03*
X0364359Y0088506D03*
D44*
X0291800Y0105947D03*
X0291800Y0111065D03*
D45*
X0086500Y0271006D03*
X0086500Y0276006D03*
X0086500Y0281006D03*
X0086500Y0286006D03*
X0067100Y0286006D03*
X0067100Y0281006D03*
X0067100Y0276006D03*
X0067100Y0271006D03*
D46*
X0196800Y0309506D03*
D47*
X0206800Y0309506D03*
X0216800Y0309506D03*
X0226800Y0309506D03*
X0236800Y0309506D03*
X0246800Y0309506D03*
X0256800Y0309506D03*
X0266800Y0309506D03*
X0276800Y0309506D03*
X0286800Y0309506D03*
X0296800Y0309506D03*
X0306800Y0309506D03*
X0316800Y0309506D03*
X0326800Y0309506D03*
X0336800Y0309506D03*
X0336800Y0369506D03*
X0326800Y0369506D03*
X0316800Y0369506D03*
X0306800Y0369506D03*
X0296800Y0369506D03*
X0286800Y0369506D03*
X0276800Y0369506D03*
X0266800Y0369506D03*
X0256800Y0369506D03*
X0246800Y0369506D03*
X0236800Y0369506D03*
X0226800Y0369506D03*
X0216800Y0369506D03*
X0206800Y0369506D03*
X0196800Y0369506D03*
D48*
X0328532Y0112443D03*
X0328532Y0110475D03*
X0328532Y0108506D03*
X0328532Y0106538D03*
X0328532Y0104569D03*
X0345068Y0104569D03*
X0345068Y0106538D03*
X0345068Y0108506D03*
X0345068Y0110475D03*
X0345068Y0112443D03*
D49*
X0336800Y0108506D03*
D50*
X0266800Y0133506D03*
X0256800Y0133506D03*
D51*
X0236800Y0113506D03*
X0276800Y0113506D03*
D52*
X0186800Y0273506D03*
X0196800Y0283506D03*
X0186800Y0288506D03*
X0166800Y0288506D03*
X0166800Y0273506D03*
X0216800Y0283506D03*
D53*
X0293400Y0230656D03*
X0318600Y0182056D03*
X0332100Y0167206D03*
X0309150Y0158656D03*
X0299250Y0132106D03*
X0315000Y0116356D03*
X0315000Y0107356D03*
X0318600Y0094306D03*
X0303750Y0093856D03*
X0369900Y0131656D03*
X0384750Y0128506D03*
X0377550Y0177106D03*
X0349200Y0205456D03*
X0085950Y0198256D03*
X0067500Y0257206D03*
X0080100Y0273406D03*
M02*
